<?xml version="1.0" encoding="iso-8859-1"?>
<!-- Generator: Adobe Illustrator 19.0.0, SVG Export Plug-In . SVG Version: 6.00 Build 0)  -->
<svg version="1.1" id="Capa_1" xmlns="http://www.w3.org/2000/svg" xmlns:xlink="http://www.w3.org/1999/xlink" x="0px" y="0px"
	 viewBox="0 0 512 512" style="enable-background:new 0 0 512 512;" xml:space="preserve">
<g>
	<path style="fill:#FFE100;" d="M298.667,401.067c0-17.527,4.42-34.014,12.177-48.435l-38.639-21.077
		C262.212,326.101,256,315.639,256,304.256v-31.189c0,0,22.34-26.718,30.865-63.855c7.074-4.574,11.802-12.484,11.802-21.478V153.6
		c0-7.509-3.337-14.225-8.533-18.918V85.333c0,0,10.129-76.8-93.867-76.8s-93.867,76.8-93.867,76.8v49.348
		c-5.197,4.693-8.533,11.409-8.533,18.918v34.133c0,8.994,4.727,16.905,11.802,21.478c8.525,37.137,30.865,63.855,30.865,63.855
		v31.189c0,11.383-6.212,21.845-16.205,27.298l-76.126,41.523c-21.99,11.989-35.669,35.038-35.669,60.083v36.173h316.365
		C308.642,451.209,298.667,427.332,298.667,401.067"/>
	<path style="fill:#FFFFFF;" d="M70.736,381.258l67.567-36.855c13.107-7.151,23.834-25.216,23.834-40.141v-17.314
		c0-8.474-2.492-16.708-7.177-23.774c-7.296-11.008-18.278-30.387-23.697-53.965c-7.066-4.565-11.793-12.476-11.793-21.478v-34.133
		c0-7.509,3.337-14.217,8.533-18.918V85.331c0,0-9.199-70.246,81.067-76.331c-4.087-0.273-8.303-0.469-12.8-0.469
		c-104.004,0-93.867,76.8-93.867,76.8v49.348c-5.197,4.702-8.533,11.409-8.533,18.918v34.133c0,9.003,4.727,16.913,11.793,21.478
		c8.525,37.137,30.874,63.855,30.874,63.855v31.198c0,11.375-6.221,21.845-16.205,27.29l-76.126,41.523
		c-21.99,11.998-35.669,35.046-35.669,60.092v36.164h25.6V442.92C34.137,417.218,48.174,393.563,70.736,381.258"/>
	<path style="fill:#00DA6C;" d="M503.467,401.067c0,56.55-45.85,102.4-102.4,102.4s-102.4-45.85-102.4-102.4
		s45.85-102.4,102.4-102.4S503.467,344.516,503.467,401.067"/>
	<path style="fill:#00AD55;" d="M401.067,298.667c-4.343,0-8.602,0.358-12.8,0.887c50.5,6.306,89.6,49.306,89.6,101.513
		s-39.1,95.206-89.6,101.513c4.198,0.529,8.457,0.887,12.8,0.887c56.55,0,102.4-45.85,102.4-102.4S457.617,298.667,401.067,298.667"
		/>
	<g>
		<path d="M401.067,307.2c-51.755,0-93.867,42.112-93.867,93.867s42.112,93.867,93.867,93.867s93.867-42.112,93.867-93.867
			S452.821,307.2,401.067,307.2 M401.067,512c-61.167,0-110.933-49.766-110.933-110.933S339.9,290.133,401.067,290.133
			S512,339.9,512,401.067S462.234,512,401.067,512"/>
		<path d="M452.267,409.6h-102.4c-4.71,0-8.533-3.823-8.533-8.533s3.823-8.533,8.533-8.533h102.4c4.71,0,8.533,3.823,8.533,8.533
			S456.977,409.6,452.267,409.6"/>
		<path d="M401.067,460.8c-4.71,0-8.533-3.823-8.533-8.533v-102.4c0-4.71,3.823-8.533,8.533-8.533s8.533,3.823,8.533,8.533v102.4
			C409.6,456.977,405.777,460.8,401.067,460.8"/>
		<path d="M17.067,460.8h290.628c-11.409-17.766-17.562-38.443-17.562-59.733c0-15.445,3.251-30.788,9.463-44.851l-31.488-17.178
			c-12.732-6.946-20.642-20.275-20.642-34.782v-31.189c0-1.988,0.708-3.934,1.98-5.47c0.213-0.247,21.171-25.737,29.107-60.297
			c0.495-2.167,1.818-4.053,3.686-5.257c4.941-3.2,7.893-8.542,7.893-14.31V153.6c0-4.787-2.031-9.25-5.717-12.587
			c-1.792-1.613-2.816-3.917-2.816-6.332V85.333c0-0.375,0.026-0.742,0.077-1.118c0.026-0.205,2.765-24.226-13.85-43.008
			c-14.157-16.017-38.238-24.141-71.561-24.141c-33.442,0-57.574,8.175-71.714,24.311c-16.623,18.961-13.722,42.598-13.696,42.837
			c0.051,0.375,0.077,0.742,0.077,1.118v49.348c0,2.415-1.024,4.719-2.816,6.332c-3.686,3.337-5.717,7.799-5.717,12.587v34.133
			c0,5.769,2.953,11.11,7.893,14.31c1.869,1.203,3.191,3.089,3.686,5.257c7.936,34.56,28.894,60.049,29.107,60.297
			c1.271,1.536,1.98,3.482,1.98,5.47v31.189c0,14.507-7.91,27.836-20.642,34.782L48.29,380.57
			c-19.26,10.505-31.223,30.66-31.223,52.599V460.8z M324.898,477.867H8.533c-4.71,0-8.533-3.823-8.533-8.533v-36.164
			c0-28.194,15.369-54.084,40.115-67.584l76.134-41.523c7.245-3.959,11.75-11.546,11.75-19.806v-28.228
			c-5.709-7.484-22.076-30.814-29.892-61.764c-8.055-6.468-12.774-16.145-12.774-26.53V153.6c0-8.218,3.072-16.179,8.533-22.4
			V85.811c-0.478-4.693-2.355-32.64,17.852-55.689C129.246,10.129,157.687,0,196.267,0s67.021,10.129,84.548,30.123
			c20.207,23.049,18.33,50.995,17.852,55.689V131.2c5.461,6.221,8.533,14.182,8.533,22.4v34.133c0,10.385-4.719,20.062-12.774,26.53
			c-7.816,30.95-24.183,54.281-29.892,61.764v28.228c0,8.26,4.506,15.846,11.75,19.806l38.647,21.077
			c4.122,2.244,5.649,7.398,3.43,11.529c-7.305,13.577-11.162,28.928-11.162,44.399c0,23.057,8.542,45.278,24.047,62.575
			c2.253,2.5,2.816,6.093,1.442,9.173C331.315,475.887,328.26,477.867,324.898,477.867L324.898,477.867z"/>
	</g>
</g>
<g>
</g>
<g>
</g>
<g>
</g>
<g>
</g>
<g>
</g>
<g>
</g>
<g>
</g>
<g>
</g>
<g>
</g>
<g>
</g>
<g>
</g>
<g>
</g>
<g>
</g>
<g>
</g>
<g>
</g>
</svg>
