<?xml version="1.0" encoding="iso-8859-1"?>
<!-- Generator: Adobe Illustrator 19.0.0, SVG Export Plug-In . SVG Version: 6.00 Build 0)  -->
<svg version="1.1" id="Layer_1" xmlns="http://www.w3.org/2000/svg" xmlns:xlink="http://www.w3.org/1999/xlink" x="0px" y="0px"
	 viewBox="0 0 512 512" style="enable-background:new 0 0 512 512;" xml:space="preserve">
<path style="fill:#AFB6BB;" d="M403.794,145.155v15.835h-31.67H139.876h-31.67v-15.835c0-11.612,9.501-21.113,21.113-21.113h10.557
	h232.247h10.557c5.806,0,11.085,2.322,14.885,6.228C401.471,134.07,403.794,139.348,403.794,145.155z"/>
<path style="fill:#1C75BC;" d="M372.124,65.979v58.062H139.876V65.979c0,0,5.278-58.062,116.124-58.062
	S372.124,65.979,372.124,65.979z"/>
<g>
	<path style="fill:#546A79;" d="M456.577,477.691c0,0,0,11.612,0,26.392H356.289c0-63.34,68.619-79.175,68.619-79.175l1.108-0.232
		C456.43,451.478,456.577,477.691,456.577,477.691z"/>
	<path style="fill:#546A79;" d="M155.711,504.082H55.423c0-14.779,0-26.392,0-26.392s0.433-26.307,31.269-53.248l0.401,0.464
		C87.093,424.907,155.711,440.742,155.711,504.082z"/>
</g>
<g>
	<path style="fill:#E7ECED;" d="M426.016,424.675l-1.108,0.232c0,0-68.619,15.835-68.619,79.175H256v-73.897
		c75.533,0,83.514-42.216,84.359-51.137c8.868,5.226,15.93,8.91,15.93,8.91C389.088,398.347,411.162,411.585,426.016,424.675z"/>
	<path style="fill:#E7ECED;" d="M256,430.186v73.897H155.711c0-63.34-68.619-79.175-68.619-79.175l-0.401-0.464
		c14.843-12.974,36.737-26.086,69.02-36.484c0,0,7.062-3.684,15.93-8.91C172.486,387.969,180.467,430.186,256,430.186z"/>
</g>
<path style="fill:#AFB6BB;" d="M308.784,356.289c6.408,7.179,20.417,16.183,31.575,22.76c-0.845,8.92-8.825,51.137-84.359,51.137
	s-83.514-42.216-84.359-51.137c11.158-6.577,25.167-15.582,31.575-22.76c0,0,21.747,26.392,52.783,26.392
	S308.784,356.289,308.784,356.289z"/>
<g>
	<path style="fill:#FFD7A3;" d="M308.784,322.718v33.57c0,0-21.747,26.392-52.784,26.392s-52.783-26.392-52.783-26.392v-33.57
		c15.413,8.023,33.148,12.457,52.783,12.457S293.371,330.741,308.784,322.718z"/>
	<path style="fill:#FFD7A3;" d="M372.124,176.825c17.524,0,31.67,6.545,31.67,21.113c0,13.513-16.68,29.137-33.042,31.353
		c0.95-6.756,1.372-13.724,1.372-20.797V176.825z"/>
	<path style="fill:#FFD7A3;" d="M141.249,229.292c-16.363-2.217-33.042-17.841-33.042-31.353c0-14.568,14.146-21.113,31.67-21.113
		v31.67C139.876,215.568,140.299,222.535,141.249,229.292z"/>
</g>
<path style="fill:#FFE1B2;" d="M370.751,229.292c-5.701,41.277-28.081,75.903-61.968,93.427
	c-15.413,8.023-33.148,12.457-52.784,12.457s-37.371-4.434-52.783-12.457c-33.887-17.524-56.267-52.15-61.968-93.427
	c-0.95-6.756-1.372-13.724-1.372-20.797v-31.67V160.99h232.247v15.835v31.67C372.124,215.568,371.701,222.535,370.751,229.292z"/>
<path d="M431.251,418.735c-17.893-15.77-42.076-28.589-71.892-38.109c-1.856-0.984-7.853-4.199-14.979-8.399
	c-12.774-7.528-22.429-14.224-27.679-19.167v-25.654c32.078-18.339,54.012-51.244,61.022-91.521
	c18.171-5.201,33.988-22.259,33.988-37.947c0-15.88-11.938-26.419-31.67-28.602v-0.429h31.67v-23.753
	c0-7.811-3.035-15.081-8.549-20.485c-5.404-5.512-12.673-8.546-20.482-8.546h-2.639V65.979l-0.033-0.717
	c-0.064-0.714-1.784-17.658-18.906-34.036C339.439,10.506,304.077,0,256,0s-83.439,10.506-105.103,31.227
	c-17.122,16.378-18.843,33.322-18.906,34.036l-0.033,0.358v50.503h-2.639c-16.007,0-29.031,13.023-29.031,29.031v23.753h31.67v0.429
	c-19.733,2.183-31.67,12.722-31.67,28.602c0,15.688,15.817,32.746,33.988,37.949c7.017,40.292,28.955,73.195,61.022,91.521v25.653
	c-5.25,4.943-14.904,11.639-27.678,19.167c-7.148,4.213-13.162,7.435-14.998,8.408c-29.397,9.543-53.328,22.274-71.142,37.845
	c-33.105,28.922-33.957,57.862-33.977,59.08l0,34.439h416.99v-34.354C464.487,476.431,463.951,447.553,431.251,418.735z
	 M409.433,421.734c-6.644,2.682-14.979,6.709-23.342,12.498c-22.366,15.485-35.175,36.776-37.377,61.933h-84.797v-58.22
	c57.739-2.307,75.999-29.805,81.769-46.728C349.764,393.481,394.525,411.283,409.433,421.734z M256,343.093
	c15.918,0,30.956-2.739,44.866-8.13v18.276c-5.416,5.662-22.577,21.524-44.866,21.524c-22.145,0-39.425-15.893-44.866-21.54v-18.261
	C225.05,340.354,240.085,343.093,256,343.093z M256,390.598c24.778,0,43.92-14.586,53.048-23.18
	c5.465,4.578,13.019,9.807,22.577,15.627c-1.24,4.927-4.164,12.371-11.066,19.349c-13.045,13.187-34.765,19.874-64.56,19.874
	c-29.794,0-51.515-6.687-64.558-19.874c-6.908-6.984-9.83-14.434-11.068-19.348c9.558-5.822,17.111-11.05,22.578-15.629
	C212.08,376.012,231.222,390.598,256,390.598z M395.876,197.938c0,6.467-6.996,15.272-16.116,20.132
	c0.174-3.129,0.281-32.819,0.281-32.819C394.152,187.229,395.876,194.526,395.876,197.938z M162.783,41.79
	C186.166,20.339,226.381,15.835,256,15.835c29.619,0,69.834,4.503,93.217,25.955c12.564,11.526,14.718,22.863,14.989,24.669v49.665
	H147.794V66.482C148.099,64.477,150.317,53.227,162.783,41.79z M116.124,145.155c0-7.277,5.919-13.196,13.196-13.196H382.68
	c3.535,0,6.805,1.361,9.21,3.832l0.154,0.154c2.472,2.405,3.833,5.675,3.833,9.211v7.918H116.124V145.155z M116.124,197.938
	c0-3.412,1.724-10.709,15.835-12.687c0,0,0.107,29.691,0.281,32.819C123.12,213.211,116.124,204.405,116.124,197.938z
	 M149.089,228.19c-0.858-6.115-1.295-12.742-1.295-19.696v-39.588h216.412v39.588c0,6.953-0.436,13.579-1.297,19.714
	c-5.445,39.426-26.499,71.309-57.78,87.488c-14.74,7.672-31.269,11.562-49.129,11.562s-34.388-3.89-49.147-11.572
	C175.591,299.518,154.537,267.635,149.089,228.19z M166.31,391.219c5.763,16.904,24.016,44.418,81.772,46.726v58.22h-84.796
	c-2.203-25.156-15.012-46.448-37.377-61.933c-8.244-5.707-16.459-9.699-23.056-12.382
	C117.724,411.39,162.235,393.482,166.31,391.219z M63.34,477.794c0.041-0.87,1.446-21.822,25.151-44.274
	c5.488,1.69,17.248,5.919,28.803,14.009c17.9,12.533,27.99,28.868,30.083,48.636H63.34V477.794z M448.66,496.165h-84.037
	c2.093-19.767,12.183-36.103,30.083-48.636c11.785-8.251,23.792-12.489,29.132-14.11c23.774,22.512,24.783,43.052,24.822,44.351
	v18.395H448.66z"/>
<polygon points="277.113,242.804 263.918,242.804 263.918,208.495 248.082,208.495 248.082,258.639 277.113,258.639 "/>
<rect x="213.773" y="459.217" width="21.113" height="15.835"/>
<rect x="277.113" y="459.217" width="21.113" height="15.835"/>
<rect x="229.608" y="42.227" width="52.784" height="15.835"/>
<rect x="219.052" y="73.897" width="73.897" height="15.835"/>
<g>
</g>
<g>
</g>
<g>
</g>
<g>
</g>
<g>
</g>
<g>
</g>
<g>
</g>
<g>
</g>
<g>
</g>
<g>
</g>
<g>
</g>
<g>
</g>
<g>
</g>
<g>
</g>
<g>
</g>
</svg>
