<?xml version="1.0" encoding="iso-8859-1"?>
<!-- Generator: Adobe Illustrator 19.0.0, SVG Export Plug-In . SVG Version: 6.00 Build 0)  -->
<svg version="1.1" id="Layer_1" xmlns="http://www.w3.org/2000/svg" xmlns:xlink="http://www.w3.org/1999/xlink" x="0px" y="0px"
	 viewBox="0 0 512 512" style="enable-background:new 0 0 512 512;" xml:space="preserve">
<path style="fill:#FFCE2A;" d="M415.432,182.188H354.32l-20.898,24.003l20.898,24.504h61.112c3.498,0,6.344,2.846,6.344,6.345V369.1
	c0,3.498-2.846,6.344-6.344,6.344H354.32l-20.898,22.314l20.898,26.194h61.112c30.294,0,54.852-24.558,54.852-54.852V237.04
	C470.283,206.747,445.726,182.188,415.432,182.188z"/>
<polygon style="fill:#FFAD00;" points="354.321,113.352 354.317,113.352 177.121,92.454 198.019,512 354.321,512 "/>
<polygon style="fill:#FFCE2A;" points="41.721,113.352 41.717,113.352 41.717,512 198.019,512 198.019,92.454 "/>
<rect x="-2.457" y="297.008" transform="matrix(-0.0013 -1 1 -0.0013 -192.8128 432.8008)" style="fill:#FDEB95;" width="244.339" height="31.347"/>
<rect x="260.493" y="190.506" style="fill:#FFCE2A;" width="31.347" height="244.339"/>
<path style="fill:#FBD698;" d="M354.315,85.325c-0.104-32.727-26.662-59.226-59.413-59.226c-12.236,0-23.605,3.702-33.056,10.043
	C248.832,14.491,225.12,0,198.019,0l-20.898,60.604l20.898,52.749h156.298L354.315,85.325z"/>
<path style="fill:#FFF1D8;" d="M134.19,36.142c-9.451-6.34-20.821-10.043-33.056-10.043c-32.751,0-59.308,26.499-59.413,59.226
	v28.026h50.971v101.702c0,14.833,12.025,26.859,26.859,26.859s26.859-12.025,26.859-26.859V113.352h51.61V0
	C170.917,0,147.205,14.491,134.19,36.142z"/>
<polygon style="fill:#FFCE2A;" points="213.692,190.509 198.019,190.509 187.57,307.722 198.019,434.844 213.692,434.844 "/>
<rect x="182.345" y="190.506" style="fill:#FDEB95;" width="15.673" height="244.339"/>
<g>
</g>
<g>
</g>
<g>
</g>
<g>
</g>
<g>
</g>
<g>
</g>
<g>
</g>
<g>
</g>
<g>
</g>
<g>
</g>
<g>
</g>
<g>
</g>
<g>
</g>
<g>
</g>
<g>
</g>
</svg>
