<?xml version="1.0" encoding="iso-8859-1"?>
<!-- Generator: Adobe Illustrator 19.0.0, SVG Export Plug-In . SVG Version: 6.00 Build 0)  -->
<svg version="1.1" id="Capa_1" xmlns="http://www.w3.org/2000/svg" xmlns:xlink="http://www.w3.org/1999/xlink" x="0px" y="0px"
	 viewBox="0 0 512.001 512.001" style="enable-background:new 0 0 512.001 512.001;" xml:space="preserve">
<g>
	<path style="fill:#F1DBC8;" d="M96.242,56L96.242,56L96.242,56z M156.001,162.001c0-11,8.999-19.999,19.999-19.999
		c11.001,0,20,8.999,20,19.999v16.486v23.514c0,11.001,9,20,20,20s20-8.999,20-20v-40v-17.014v-22.986v-20h100v-5.759
		c0-22.133-18.109-40.241-40.241-40.241h-4.962c-6.64-12.755-19.994-21.518-35.297-21.518c-8.236,0-15.908,2.539-22.273,6.873
		c-7.273-9.624-18.805-15.873-31.727-15.873c-7.502,0-14.535,2.106-20.539,5.756C172.76,18.49,158.445,10,142.242,10
		c-25.301,0-46,20.701-46,46.001C74.108,56.001,56,74.109,56,96.242v5.759h60.001v20v22.986v17.014v80c0,11.001,8.999,20,20,20
		s20-9,20-20v-63.514V162.001z"/>
	<g>
		<polygon style="fill:#E9BC82;" points="236.001,122.002 236.001,144.987 236.001,162.001 276.001,162.001 336.001,162.001 
			336.001,102.002 236.001,102.002 		"/>
		<polygon style="fill:#E9BC82;" points="116.001,144.987 116.001,122.002 116.001,102.002 56,102.002 56,162.001 116.001,162.001 
					"/>
	</g>
	<path style="fill:#FFBD50;" d="M156.001,178.488v63.514c0,11-8.999,20-20,20s-20-8.999-20-20v-80H56v197.487v61.257v61.257
		c0,10.95,8.918,19.917,19.849,19.999l240.151,0.001l0.151-0.001c10.931-0.082,19.849-9.05,19.849-19.999v-40v-21.257v-13.743
		v-47.514V197.001v-35h-60h-40v40c0,11.001-9,20-20,20s-20-8.999-20-20v-23.514v-16.486c0-11-8.999-19.999-20-19.999
		c-11,0-19.999,8.999-19.999,19.999L156.001,178.488L156.001,178.488z"/>
	<path style="fill:#F1DBC8;" d="M336.001,162.001v35h60c13.682,0,25,11.319,25,25v160.001c0,13.682-11.319,25-25,25h-60v13.743
		v21.257h60c33,0,60-27,60-60V222.001c0-33-27-60-60-60H336.001z"/>
</g>
<path d="M196.001,296.493c-5.523,0-10,4.477-10,10v135.509c0,5.523,4.477,10,10,10s10-4.477,10-10V306.493
	C206.001,300.97,201.523,296.493,196.001,296.493z"/>
<path d="M116.001,296.493c-5.523,0-10,4.477-10,10v135.509c0,5.523,4.477,10,10,10s10-4.477,10-10V306.493
	C126.001,300.97,121.524,296.493,116.001,296.493z"/>
<path d="M276,296.493c-5.523,0-10,4.477-10,10v135.509c0,5.523,4.477,10,10,10s10-4.477,10-10V306.493
	C286,300.97,281.523,296.493,276,296.493z"/>
<path d="M275.999,242.003c5.523,0,10-4.477,10-10v-0.236c0-5.523-4.477-10-10-10s-10,4.477-10,10v0.236
	C265.999,237.526,270.476,242.003,275.999,242.003z"/>
<path d="M502.001,492.001h-0.236c-5.523,0-10,4.477-10,10s4.477,10,10,10h0.236c5.523,0,10-4.477,10-10
	C512,496.479,507.523,492.001,502.001,492.001z"/>
<path d="M10.236,492.001H10c-5.523,0-10,4.477-10,10s4.477,10,10,10h0.236c5.523,0,10-4.477,10-10
	C20.236,496.479,15.76,492.001,10.236,492.001z"/>
<path d="M473.034,492.001H344.281c1.11-3.13,1.72-6.494,1.72-9.999v-30h50c38.598,0,70-31.402,70-70V222.001
	c0-38.598-31.402-70-70-70h-50V96.242l0,0c0-27.478-22.175-49.875-49.569-50.236c-9.248-13.413-24.427-21.522-40.931-21.522
	c-7.026,0-13.886,1.474-20.216,4.31c-9.142-8.447-21.257-13.31-33.784-13.31c-6.021,0-11.964,1.098-17.548,3.213
	C173.391,6.859,158.345,0,142.242,0c-27.765,0-50.876,20.311-55.253,46.855C63.689,51.21,46,71.7,46,96.242l0,0l0,0v385.76
	c0,3.505,0.61,6.87,1.72,9.999h-8.753c-5.523,0-10,4.477-10,10s4.477,10,10,10l0,0c0.006,0-0.006,0,0,0h434.066c0.006,0-0.006,0,0,0
	l0,0c5.523,0,10-4.477,10-10C483.034,496.479,478.557,492.001,473.034,492.001z M246.001,152.001v-40h80v40H246.001z
	 M346.001,207.001h50c8.131,0,15,6.869,15,15v160.001c0,8.131-6.869,15-15,15h-50V207.001z M446.001,222.001v160.001
	c0,27.57-22.43,50-50,50h-50v-15h50c19.299,0,35-15.701,35-35V222.001c0-19.299-15.701-35-35-35h-50v-15h50
	C423.571,172.001,446.001,194.431,446.001,222.001z M96.242,66.001c5.522,0,9.999-4.477,9.999-10c0-19.851,16.149-36,36-36
	c12.272,0,23.603,6.224,30.309,16.649c2.933,4.562,8.968,5.953,13.605,3.135c4.628-2.813,9.934-4.301,15.345-4.301
	c9.375,0,18.031,4.338,23.748,11.902c3.214,4.252,9.199,5.236,13.605,2.236c4.938-3.362,10.694-5.139,16.647-5.139
	c11.119,0,21.245,6.183,26.426,16.135c1.722,3.308,5.141,5.382,8.87,5.382h4.962c15.235,0,27.869,11.327,29.938,26h-89.697
	c-5.523,0-10,4.477-10,10v100c0,5.514-4.486,10-10,10s-10-4.486-10-10v-40c0-16.542-13.458-29.999-30-29.999
	S146.001,145.459,146.001,162v80c0,5.514-4.486,10-10,10s-10-4.486-10-10V102c0-5.523-4.477-10-10-10H66.303
	C68.372,77.328,81.007,66.002,96.242,66.001z M66,112.002h40.001v40H66V112.002z M66,482.002V172.001h40.001v70
	c0,16.542,13.458,30,30,30s30-13.458,30-30v-80c0-5.514,4.485-9.999,9.999-9.999s10,4.486,10,9.999v40c0,16.542,13.458,30,30,30
	s30-13.458,30-30v-30h20v31.035c0,5.523,4.477,10,10,10s10-4.477,10-10v-31.035h40l0,0v310.001l0,0l0,0
	c0,5.511-4.481,9.994-9.99,9.999H75.99C70.48,491.996,66,487.513,66,482.002z"/>
<g>
</g>
<g>
</g>
<g>
</g>
<g>
</g>
<g>
</g>
<g>
</g>
<g>
</g>
<g>
</g>
<g>
</g>
<g>
</g>
<g>
</g>
<g>
</g>
<g>
</g>
<g>
</g>
<g>
</g>
</svg>
