<?xml version="1.0" encoding="iso-8859-1"?>
<!-- Generator: Adobe Illustrator 19.0.0, SVG Export Plug-In . SVG Version: 6.00 Build 0)  -->
<svg version="1.1" id="Capa_1" xmlns="http://www.w3.org/2000/svg" xmlns:xlink="http://www.w3.org/1999/xlink" x="0px" y="0px"
	 viewBox="0 0 512 512" style="enable-background:new 0 0 512 512;" xml:space="preserve">
<g>
	<path style="fill:#F0F3F4;" d="M59.733,8.533h392.533c28.277,0,51.2,22.923,51.2,51.2v392.533c0,28.277-22.923,51.2-51.2,51.2
		H59.733c-28.277,0-51.2-22.923-51.2-51.2V59.733C8.533,31.456,31.456,8.533,59.733,8.533z"/>
	<g>
		<circle style="fill:#FAEDBD;" cx="72.533" cy="72.533" r="21.333"/>
		<circle style="fill:#FAEDBD;" cx="439.467" cy="72.533" r="21.333"/>
		<circle style="fill:#FAEDBD;" cx="72.533" cy="439.467" r="21.333"/>
		<circle style="fill:#FAEDBD;" cx="439.467" cy="439.467" r="21.333"/>
		<path style="fill:#FAEDBD;" d="M230.4,366.933h51.2c9.426,0,17.067,7.641,17.067,17.067v34.133
			c0,9.426-7.641,17.067-17.067,17.067h-51.2c-9.426,0-17.067-7.641-17.067-17.067V384
			C213.333,374.574,220.974,366.933,230.4,366.933z"/>
		<path style="fill:#FAEDBD;" d="M297.404,76.8h-82.808c-4.738,0-9.262,1.969-12.491,5.436c-3.229,3.467-4.871,8.121-4.533,12.846
			l14.629,204.8c0.638,8.931,8.07,15.851,17.024,15.851h53.551c8.954,0,16.385-6.92,17.023-15.851l14.629-204.8
			c0.338-4.726-1.304-9.379-4.533-12.846C306.666,78.769,302.142,76.8,297.404,76.8z"/>
	</g>
	<path style="fill:#DD5919;" d="M59.733,8.533h392.533c28.277,0,51.2,22.923,51.2,51.2v392.533c0,28.277-22.923,51.2-51.2,51.2
		H59.733c-28.277,0-51.2-22.923-51.2-51.2V59.733C8.533,31.456,31.456,8.533,59.733,8.533z"/>
	<path style="fill:#FF6E2C;" d="M59.955,8.533h360.09c27.221,0,49.289,22.067,49.289,49.289v396.356
		c0,27.221-22.067,49.289-49.289,49.289H59.955c-27.221,0-49.289-22.067-49.289-49.289V57.822
		C10.667,30.601,32.734,8.533,59.955,8.533z"/>
	<g>
		<circle style="fill:#FFC500;" cx="72.533" cy="72.533" r="21.333"/>
		<circle style="fill:#FFC500;" cx="439.467" cy="72.533" r="21.333"/>
		<circle style="fill:#FFC500;" cx="72.533" cy="439.467" r="21.333"/>
		<circle style="fill:#FFC500;" cx="439.467" cy="439.467" r="21.333"/>
	</g>
	<g>
		<path style="fill:#FFBA00;" d="M230.4,366.933h51.2c9.426,0,17.067,7.641,17.067,17.067v34.133
			c0,9.426-7.641,17.067-17.067,17.067h-51.2c-9.426,0-17.067-7.641-17.067-17.067V384
			C213.333,374.574,220.974,366.933,230.4,366.933z"/>
		<path style="fill:#FFBA00;" d="M314.453,95.061l-14.677,204.8c-0.591,8.94-8.022,15.886-16.981,15.872h-53.589
			c-8.96,0.014-16.391-6.932-16.981-15.872l-14.677-204.8c-0.325-4.728,1.328-9.378,4.563-12.841
			c3.236-3.462,7.764-5.426,12.503-5.42h82.773c4.739-0.005,9.267,1.958,12.503,5.42C313.126,85.683,314.779,90.333,314.453,95.061z
			"/>
	</g>
	<g>
		<path style="fill:#FFC500;" d="M230.4,366.933h17.067c9.426,0,17.067,7.641,17.067,17.067v34.133
			c0,9.426-7.641,17.067-17.067,17.067H230.4c-9.426,0-17.067-7.641-17.067-17.067V384
			C213.333,374.574,220.974,366.933,230.4,366.933z"/>
		<path style="fill:#FFC500;" d="M280.32,95.061l-14.677,204.8c-0.591,8.94-8.022,15.886-16.981,15.872h-19.456
			c-8.96,0.014-16.391-6.932-16.981-15.872l-14.677-204.8c-0.325-4.728,1.328-9.378,4.563-12.841
			c3.236-3.462,7.764-5.426,12.503-5.42h48.64c4.739-0.005,9.267,1.958,12.503,5.42C278.992,85.683,280.645,90.333,280.32,95.061z"
			/>
	</g>
	<g>
		<path d="M452.267,0H59.733C26.759,0.037,0.037,26.759,0,59.733v392.533C0.037,485.241,26.759,511.963,59.733,512h392.533
			c32.974-0.037,59.696-26.759,59.733-59.733V59.733C511.963,26.759,485.241,0.037,452.267,0z M494.933,452.267
			c-0.028,23.553-19.114,42.639-42.667,42.667H59.733c-23.553-0.028-42.639-19.114-42.667-42.667V59.733
			c0.028-23.553,19.114-42.639,42.667-42.667h392.533c23.553,0.028,42.639,19.114,42.667,42.667V452.267z"/>
		<path d="M72.533,42.667c-16.495,0-29.867,13.372-29.867,29.867S56.038,102.4,72.533,102.4S102.4,89.028,102.4,72.533
			C102.38,56.047,89.02,42.687,72.533,42.667L72.533,42.667z M72.533,85.333c-7.069,0-12.8-5.731-12.8-12.8
			c0-7.069,5.731-12.8,12.8-12.8c7.069,0,12.8,5.731,12.8,12.8C85.326,79.599,79.599,85.326,72.533,85.333L72.533,85.333z"/>
		<path d="M439.467,42.667c-16.495,0-29.867,13.372-29.867,29.867s13.372,29.867,29.867,29.867
			c16.495,0,29.867-13.372,29.867-29.867C469.313,56.047,455.953,42.687,439.467,42.667L439.467,42.667z M439.467,85.333
			c-7.069,0-12.8-5.731-12.8-12.8c0-7.069,5.731-12.8,12.8-12.8c7.069,0,12.8,5.731,12.8,12.8
			C452.259,79.599,446.533,85.326,439.467,85.333L439.467,85.333z"/>
		<path d="M72.533,409.6c-16.495,0-29.867,13.372-29.867,29.867c0,16.495,13.372,29.867,29.867,29.867s29.867-13.372,29.867-29.867
			C102.38,422.98,89.02,409.62,72.533,409.6L72.533,409.6z M72.533,452.267c-7.069,0-12.8-5.731-12.8-12.8
			c0-7.069,5.731-12.8,12.8-12.8c7.069,0,12.8,5.731,12.8,12.8C85.326,446.533,79.599,452.259,72.533,452.267z"/>
		<path d="M439.467,409.6c-16.495,0-29.867,13.372-29.867,29.867c0,16.495,13.372,29.867,29.867,29.867
			c16.495,0,29.867-13.372,29.867-29.867C469.313,422.98,455.953,409.62,439.467,409.6L439.467,409.6z M439.467,452.267
			c-7.069,0-12.8-5.731-12.8-12.8c0-7.069,5.731-12.8,12.8-12.8c7.069,0,12.8,5.731,12.8,12.8
			C452.259,446.533,446.533,452.259,439.467,452.267L439.467,452.267z"/>
		<path d="M281.6,358.4h-51.2c-14.132,0.015-25.585,11.468-25.6,25.6v34.133c0.015,14.132,11.468,25.585,25.6,25.6h51.2
			c14.132-0.015,25.585-11.468,25.6-25.6V384C307.185,369.868,295.732,358.415,281.6,358.4z M290.133,418.133
			c-0.006,4.71-3.823,8.527-8.533,8.533h-51.2c-4.71-0.006-8.527-3.823-8.533-8.533V384c0.006-4.71,3.823-8.527,8.533-8.533h51.2
			c4.71,0.006,8.527,3.823,8.533,8.533V418.133z"/>
		<path d="M297.404,68.267h-82.808c-7.106,0.001-13.893,2.956-18.735,8.156s-7.307,12.18-6.802,19.269l14.629,204.8
			c1.001,13.376,12.124,23.731,25.537,23.775h53.55c13.414-0.043,24.537-10.399,25.537-23.775l14.629-204.8
			c0.505-7.088-1.959-14.068-6.802-19.269C311.297,71.222,304.511,68.268,297.404,68.267z M291.287,299.275
			c-0.332,4.46-4.04,7.913-8.512,7.925h-53.55c-4.472-0.012-8.181-3.465-8.512-7.925l-14.629-204.8
			c-0.169-2.363,0.651-4.69,2.266-6.424c1.615-1.734,3.878-2.718,6.247-2.717h82.808c2.369-0.001,4.632,0.984,6.247,2.717
			c1.615,1.734,2.435,4.061,2.266,6.424L291.287,299.275z"/>
	</g>
</g>
<g>
</g>
<g>
</g>
<g>
</g>
<g>
</g>
<g>
</g>
<g>
</g>
<g>
</g>
<g>
</g>
<g>
</g>
<g>
</g>
<g>
</g>
<g>
</g>
<g>
</g>
<g>
</g>
<g>
</g>
</svg>
