<?xml version="1.0" encoding="iso-8859-1"?>
<!-- Generator: Adobe Illustrator 19.0.0, SVG Export Plug-In . SVG Version: 6.00 Build 0)  -->
<svg version="1.1" id="Capa_1" xmlns="http://www.w3.org/2000/svg" xmlns:xlink="http://www.w3.org/1999/xlink" x="0px" y="0px"
	 viewBox="0 0 512.001 512.001" style="enable-background:new 0 0 512.001 512.001;" xml:space="preserve">
<g>
	<path style="fill:#FFFFFF;" d="M187.734,220.661v228.096c-0.853,0-1.792-0.085-2.646-0.171c-3.555-0.322-6.994-1.43-10.069-3.243
		l-12.885-7.339l-0.171-0.085L34.732,365.216l-13.313-7.595C13.46,353.026,8.55,344.54,8.534,335.349V134.731
		c-0.012-3.809,0.833-7.571,2.475-11.008h0.085l23.04,13.141l8.533,4.864l119.467,68.267l12.629,7.253
		C178.731,219.458,183.192,220.632,187.734,220.661z"/>
	<g>
		<path style="fill:#FFA800;" d="M187.734,220.661v228.096c-0.853,0-1.792-0.085-2.646-0.171c-2.77-0.493-5.394-1.601-7.679-3.243
			l-10.411-7.339l-113.92-80.384c-6.792-5.364-10.652-13.621-10.411-22.272V141.728l119.467,68.267l12.629,7.253
			C178.731,219.458,183.192,220.632,187.734,220.661z"/>
		<path style="fill:#FFA800;" d="M364.374,123.723l-163.669,93.525c-1.452,0.776-2.964,1.433-4.523,1.963
			c-2.717,0.943-5.572,1.433-8.448,1.451c-4.542-0.03-9.003-1.204-12.971-3.413L11.094,123.723
			c2.198-4.73,5.804-8.664,10.325-11.264l132.693-75.776l20.907-11.947c7.873-4.522,17.556-4.522,25.429,0l92.16,52.651
			l61.44,35.072C358.57,115.059,362.176,118.993,364.374,123.723L364.374,123.723z"/>
		<path style="fill:#FFA800;" d="M503.467,176.544v200.704c0.003,9.173-4.916,17.643-12.885,22.187l-17.835,10.155l-135.765,77.653
			c-3.872,2.218-8.253,3.394-12.715,3.413V374.603l11.947-6.827l17.835-10.155c7.959-4.595,12.869-13.081,12.885-22.272v-93.184
			l134.059-76.544C502.634,169.028,503.48,172.763,503.467,176.544L503.467,176.544z"/>
		<path style="fill:#FFA800;" d="M366.934,134.731v200.619c-0.016,9.191-4.926,17.677-12.885,22.272l-17.835,10.155l-11.947,6.827
			l-104.875,59.904l-18.944,10.837c-3.856,2.256-8.247,3.435-12.715,3.413V220.661c4.542-0.03,9.003-1.204,12.971-3.413
			l163.669-93.525h0.085C366.101,127.16,366.946,130.922,366.934,134.731L366.934,134.731z"/>
		<path style="fill:#FFA800;" d="M500.993,165.621l-27.051,15.445l-107.008,61.099V134.731c0.012-3.809-0.833-7.571-2.475-11.008
			h-0.085c-2.198-4.73-5.804-8.664-10.325-11.264l-54.612-31.147l-6.827-3.925l18.943-10.837c7.873-4.523,17.556-4.523,25.429,0
			l153.6,87.808C495.125,156.956,498.759,160.888,500.993,165.621z"/>
		<path style="fill:#FFA800;" d="M324.267,374.603v116.053c-4.462-0.02-8.843-1.196-12.715-3.413l-15.189-8.704l-76.971-44.032
			l79.275-45.312L324.267,374.603z"/>
	</g>
	<g>
		<path style="fill:#FEDD0A;" d="M162.134,209.995v228.011l-0.171-0.085L34.732,365.216c-0.418-2.107-0.619-4.252-0.598-6.4V136.864
			l8.533,4.864L162.134,209.995z"/>
		<path style="fill:#FEDD0A;" d="M338.774,137.717l-142.592,81.493c-2.717,0.943-5.572,1.433-8.448,1.451
			c-4.542-0.03-9.003-1.204-12.971-3.413L11.094,123.723c2.198-4.73,5.804-8.664,10.325-11.264l132.693-75.776
			c6.885-2.332,14.44-1.586,20.736,2.048l92.16,52.651l61.44,35.072C332.97,129.054,336.576,132.988,338.774,137.717
			L338.774,137.717z"/>
		<path style="fill:#FEDD0A;" d="M477.867,193.611v200.704c-0.011,5.511-1.808,10.87-5.12,15.275l-135.765,77.653
			c-3.872,2.218-8.253,3.394-12.715,3.413V377.077l4.181-2.389c3.041-1.739,5.686-4.093,7.765-6.912l17.835-10.155
			c7.959-4.595,12.869-13.081,12.885-22.272V244.64l108.459-61.952C477.034,186.095,477.88,189.829,477.867,193.611z"/>
		<path style="fill:#FEDD0A;" d="M341.334,151.797v200.619c-0.011,5.537-1.806,10.924-5.12,15.36l-11.947,6.827l-104.875,59.904
			l-18.944,10.837c-3.856,2.256-8.247,3.435-12.715,3.413V227.061l151.04-86.272h0.085
			C340.501,144.226,341.346,147.989,341.334,151.797z"/>
		<path style="fill:#FEDD0A;" d="M366.934,242.165V134.731c0.012-3.809-0.833-7.571-2.475-11.008h-0.085
			c-2.198-4.73-5.804-8.664-10.325-11.264l-54.612-31.147c4.194,0.116,8.296,1.259,11.946,3.328l153.6,87.808
			c3.651,2.091,6.729,5.052,8.96,8.619L366.934,242.165z"/>
		<path style="fill:#FEDD0A;" d="M298.667,389.195v89.515c-0.772,0.028-1.545-0.029-2.304-0.171l-76.971-44.032L298.667,389.195z"/>
	</g>
	<g>
		<path d="M187.734,457.289c-5.985,0.013-11.865-1.571-17.033-4.588L17.184,365.031c-10.595-6.139-17.136-17.439-17.183-29.683
			V234.656c0-4.713,3.821-8.533,8.533-8.533s8.533,3.82,8.533,8.533v100.692c0.03,6.146,3.316,11.815,8.633,14.896l153.5,87.663
			V228.114c-2.988-0.765-5.867-1.907-8.567-3.4l-153.567-87.75v29.425c0,4.713-3.821,8.533-8.533,8.533s-8.533-3.821-8.533-8.533
			v-31.659c-0.014-5.078,1.114-10.095,3.3-14.679c1.088-2.102,2.972-3.68,5.231-4.382c2.26-0.702,4.706-0.47,6.794,0.645
			l163.675,93.525c2.678,1.471,5.678,2.257,8.733,2.288c2.263-0.001,4.434,0.898,6.035,2.499c1.6,1.6,2.499,3.771,2.499,6.035
			v228.096c0.001,2.263-0.898,4.434-2.499,6.035S189.997,457.29,187.734,457.289z"/>
		<path d="M8.534,209.056c-2.262-0.016-4.432-0.902-6.059-2.475c-3.3-3.365-3.3-8.752,0-12.117c2.013-2.001,4.892-2.865,7.675-2.304
			c0.566,0.079,1.115,0.25,1.625,0.508c0.543,0.188,1.059,0.447,1.533,0.771c0.425,0.341,0.858,0.683,1.283,1.025
			c0.341,0.425,0.683,0.85,1.025,1.363c0.335,0.437,0.594,0.927,0.767,1.45c0.247,0.483,0.419,1.002,0.508,1.538
			c0.104,0.564,0.163,1.135,0.175,1.708c-0.034,2.259-0.918,4.422-2.475,6.059c-0.406,0.367-0.835,0.708-1.283,1.021
			c-0.475,0.324-0.99,0.583-1.533,0.771c-0.51,0.257-1.059,0.431-1.625,0.513C9.617,208.984,9.077,209.041,8.534,209.056
			L8.534,209.056z"/>
		<path d="M187.734,229.194c-5.987-0.027-11.869-1.568-17.1-4.479L6.859,131.131c-3.849-2.194-5.375-6.973-3.508-10.992
			c2.948-6.326,7.772-11.591,13.817-15.079l153.617-87.733c10.507-6.025,23.423-6.021,33.925,0.012l153.575,87.708
			c6.051,3.491,10.881,8.76,13.833,15.092c1.866,4.019,0.341,8.797-3.508,10.992l-163.675,93.525
			C199.677,227.601,193.759,229.162,187.734,229.194z M23.767,121.135l155.233,88.704c5.49,2.948,12.097,2.926,17.567-0.058
			l155.133-88.646c-0.602-0.47-1.237-0.896-1.9-1.275L196.218,32.144c-5.243-3.016-11.694-3.021-16.942-0.012L25.651,119.869
			C24.993,120.245,24.364,120.668,23.767,121.135z"/>
	</g>
	<g>
		<ellipse style="fill:#55C9FC;" cx="59.734" cy="213.707" rx="17.067" ry="25.6"/>
		<ellipse style="fill:#55C9FC;" cx="136.534" cy="264.907" rx="17.067" ry="25.6"/>
		<ellipse style="fill:#55C9FC;" cx="136.534" cy="358.773" rx="17.067" ry="25.6"/>
		<ellipse style="fill:#55C9FC;" cx="59.734" cy="307.573" rx="17.067" ry="25.6"/>
		<ellipse style="fill:#55C9FC;" cx="315.734" cy="222.24" rx="17.067" ry="25.6"/>
		<ellipse style="fill:#55C9FC;" cx="238.934" cy="350.24" rx="17.067" ry="25.6"/>
		<ellipse style="fill:#55C9FC;" cx="187.734" cy="119.84" rx="25.6" ry="17.067"/>
	</g>
	<g>
		<path d="M59.734,247.839c-14.358,0-25.6-14.992-25.6-34.133s11.242-34.133,25.6-34.133s25.6,14.992,25.6,34.133
			S74.092,247.839,59.734,247.839z M59.734,196.639c-3.483,0-8.533,6.65-8.533,17.067c0,10.417,5.05,17.067,8.533,17.067
			c3.483,0,8.533-6.65,8.533-17.067C68.267,203.289,63.217,196.639,59.734,196.639z"/>
		<path d="M136.534,299.039c-14.358,0-25.6-14.992-25.6-34.133s11.242-34.133,25.6-34.133s25.6,14.992,25.6,34.133
			S150.892,299.039,136.534,299.039z M136.534,247.839c-3.483,0-8.533,6.65-8.533,17.067c0,10.417,5.05,17.067,8.533,17.067
			s8.533-6.65,8.533-17.067C145.067,254.489,140.017,247.839,136.534,247.839L136.534,247.839z"/>
		<path d="M136.534,392.906c-14.358,0-25.6-14.992-25.6-34.133c0-19.142,11.242-34.133,25.6-34.133s25.6,14.992,25.6,34.133
			C162.134,377.914,150.892,392.906,136.534,392.906z M136.534,341.706c-3.483,0-8.533,6.65-8.533,17.067s5.05,17.067,8.533,17.067
			s8.533-6.65,8.533-17.067S140.017,341.706,136.534,341.706z"/>
		<path d="M59.734,341.706c-14.358,0-25.6-14.992-25.6-34.133c0-19.142,11.242-34.133,25.6-34.133s25.6,14.992,25.6,34.133
			C85.334,326.714,74.092,341.706,59.734,341.706z M59.734,290.506c-3.483,0-8.533,6.65-8.533,17.067
			c0,10.417,5.05,17.067,8.533,17.067c3.483,0,8.533-6.65,8.533-17.067C68.267,297.156,63.217,290.506,59.734,290.506z"/>
		<path d="M315.734,256.373c-14.358,0-25.6-14.992-25.6-34.133s11.242-34.133,25.6-34.133s25.6,14.992,25.6,34.133
			S330.092,256.373,315.734,256.373z M315.734,205.173c-3.483,0-8.533,6.65-8.533,17.067c0,10.417,5.05,17.067,8.533,17.067
			c3.483,0,8.533-6.65,8.533-17.067C324.267,211.823,319.217,205.173,315.734,205.173z"/>
		<path d="M238.934,384.373c-14.358,0-25.6-14.992-25.6-34.133c0-19.142,11.242-34.133,25.6-34.133s25.6,14.992,25.6,34.133
			C264.534,369.381,253.292,384.373,238.934,384.373z M238.934,333.173c-3.483,0-8.533,6.65-8.533,17.067
			c0,10.417,5.05,17.067,8.533,17.067s8.533-6.65,8.533-17.067C247.467,339.823,242.417,333.173,238.934,333.173z"/>
		<path d="M187.734,145.439c-19.142,0-34.133-11.246-34.133-25.6s14.992-25.6,34.133-25.6s34.133,11.246,34.133,25.6
			S206.876,145.439,187.734,145.439z M187.734,111.306c-10.417,0-17.067,5.054-17.067,8.533s6.65,8.533,17.067,8.533
			c10.417,0,17.067-5.054,17.067-8.533S198.151,111.306,187.734,111.306L187.734,111.306z"/>
		<path d="M324.267,499.189c-2.263,0.001-4.434-0.898-6.035-2.499c-1.6-1.6-2.499-3.771-2.499-6.035V374.602
			c-0.002-3.066,1.643-5.896,4.308-7.412l29.783-16.979c5.289-3.086,8.551-8.739,8.575-14.862v-93.183
			c0.001-3.063,1.641-5.891,4.3-7.412l134.059-76.542c2.049-1.167,4.49-1.435,6.743-0.741c2.254,0.694,4.12,2.29,5.157,4.408
			c2.208,4.574,3.35,9.588,3.341,14.667v200.705c-0.011,12.235-6.57,23.528-17.192,29.6l-153.591,87.804
			C336.052,497.598,330.214,499.161,324.267,499.189z M332.801,379.561v100.246l153.55-87.779c5.303-3.031,8.578-8.67,8.583-14.779
			V178.906l-119.467,68.212v88.229c-0.042,12.225-6.563,23.512-17.133,29.654L332.801,379.561z"/>
		<path d="M187.734,457.289c-2.263,0.001-4.434-0.898-6.035-2.499c-1.6-1.6-2.499-3.771-2.499-6.035V220.66
			c-0.001-2.263,0.898-4.434,2.499-6.035c1.6-1.6,3.771-2.499,6.035-2.499c3.094-0.035,6.13-0.842,8.833-2.346l163.575-93.466
			c2.088-1.11,4.533-1.339,6.791-0.637c2.258,0.702,4.142,2.277,5.234,4.375c2.186,4.584,3.314,9.6,3.3,14.679v200.617
			c-0.042,12.225-6.563,23.512-17.133,29.654l-153.642,87.75C199.541,455.739,193.689,457.305,187.734,457.289z M196.267,228.11
			v209.796l153.558-87.696c5.289-3.086,8.551-8.739,8.575-14.862V136.965l-153.467,87.691
			C202.205,226.173,199.292,227.334,196.267,228.11L196.267,228.11z"/>
		<path d="M366.934,250.698c-4.712-0.002-8.532-3.821-8.533-8.533V134.731c0.016-2.238-0.42-4.456-1.283-6.521
			c-0.179-0.292-0.341-0.594-0.483-0.905c-1.459-3.125-3.845-5.725-6.833-7.446l-61.425-35.063c-2.658-1.52-4.298-4.346-4.3-7.408
			s1.636-5.89,4.292-7.413l18.942-10.837c10.511-6.021,23.427-6.016,33.933,0.012l153.575,87.796
			c6.064,3.466,10.914,8.715,13.892,15.033c1.9,4.029,0.383,8.842-3.483,11.054l-134.059,76.542
			C369.877,250.31,368.418,250.696,366.934,250.698L366.934,250.698z M371.576,119.019c0.22,0.331,0.418,0.676,0.592,1.033
			c2.186,4.584,3.314,9.6,3.3,14.679v92.734l112.817-64.408c-0.62-0.477-1.271-0.911-1.95-1.3l-153.583-87.8
			c-5.242-3.021-11.695-3.025-16.942-0.012l-6,3.433l48.475,27.671C363.965,108.331,368.579,113.181,371.576,119.019
			L371.576,119.019z"/>
		<path d="M324.267,499.189c-5.933-0.027-11.76-1.582-16.917-4.517l-92.2-52.758c-2.656-1.522-4.293-4.35-4.292-7.411
			c0.002-3.061,1.643-5.887,4.3-7.406l104.875-59.904c2.641-1.509,5.885-1.498,8.516,0.028c2.631,1.527,4.25,4.338,4.251,7.38
			v116.054c0.001,2.263-0.898,4.434-2.499,6.035C328.702,498.291,326.531,499.19,324.267,499.189z M236.584,434.514l79.15,45.292
			v-90.505L236.584,434.514z"/>
	</g>
	<g>
		<ellipse style="fill:#55C9FC;" cx="418.134" cy="328.523" rx="17.067" ry="25.6"/>
		<ellipse style="fill:#55C9FC;" cx="392.534" cy="166.389" rx="25.6" ry="17.067"/>
	</g>
	<g>
		<path d="M418.134,362.656c-14.358,0-25.6-14.992-25.6-34.133s11.242-34.133,25.6-34.133s25.6,14.992,25.6,34.133
			S432.492,362.656,418.134,362.656z M418.134,311.456c-3.483,0-8.533,6.65-8.533,17.067s5.05,17.067,8.533,17.067
			s8.533-6.65,8.533-17.067S421.617,311.456,418.134,311.456z"/>
		<path d="M392.534,191.989c-19.142,0-34.133-11.246-34.133-25.6c0-14.354,14.992-25.6,34.133-25.6s34.133,11.246,34.133,25.6
			C426.667,180.744,411.676,191.989,392.534,191.989z M392.534,157.856c-10.417,0-17.067,5.054-17.067,8.533
			c0,3.479,6.65,8.533,17.067,8.533s17.067-5.054,17.067-8.533C409.601,162.91,402.951,157.856,392.534,157.856z"/>
	</g>
</g>
<g>
</g>
<g>
</g>
<g>
</g>
<g>
</g>
<g>
</g>
<g>
</g>
<g>
</g>
<g>
</g>
<g>
</g>
<g>
</g>
<g>
</g>
<g>
</g>
<g>
</g>
<g>
</g>
<g>
</g>
</svg>
