<?xml version="1.0" encoding="iso-8859-1"?>
<!-- Generator: Adobe Illustrator 19.0.0, SVG Export Plug-In . SVG Version: 6.00 Build 0)  -->
<svg version="1.1" id="Layer_1" xmlns="http://www.w3.org/2000/svg" xmlns:xlink="http://www.w3.org/1999/xlink" x="0px" y="0px"
	 viewBox="0 0 511.285 511.285" style="enable-background:new 0 0 511.285 511.285;" xml:space="preserve">
<g transform="translate(1 1)">
	<path style="fill:#FFE100;" d="M143.709,173.576h10.24c10.24,0,19.627,2.56,28.16,8.533c6.827,4.267,13.653,6.827,21.333,7.68
		v-30.72c0-11.093-9.387-19.627-19.627-19.627h-62.293c-11.947,0-20.48,8.533-20.48,19.627v23.04
		C114.696,176.989,128.349,173.576,143.709,173.576"/>
	<polygon style="fill:#FDCC00;" points="357.043,79.709 391.176,79.709 391.176,28.509 357.043,28.509 	"/>
	<g>
		<path style="fill:#FFE100;" d="M263.176,207.709c-5.12,0-8.533-3.413-8.533-8.533v-102.4c0-23.893,18.773-42.667,42.667-42.667
			c23.893,0,42.667,18.773,42.667,42.667v25.6c0,9.387,7.68,17.067,17.067,17.067s17.067-7.68,17.067-17.067V88.243
			c0-5.12,3.413-8.533,8.533-8.533c5.12,0,8.533,3.413,8.533,8.533v34.133c0,18.773-15.36,34.133-34.133,34.133
			s-34.133-15.36-34.133-34.133v-25.6c0-14.507-11.093-25.6-25.6-25.6s-25.6,11.093-25.6,25.6v102.4
			C271.709,204.296,268.296,207.709,263.176,207.709z"/>
		<path style="fill:#FFE100;" d="M433.843,480.776L433.843,480.776c-11.947,0-23.893-5.973-30.72-16.213l-20.48-29.867
			c-12.8-18.773-34.133-30.72-57.173-30.72H182.963c-23.04,0-44.373,11.093-57.173,30.72l-20.48,29.867
			c-5.973,10.24-17.92,16.213-29.867,16.213l0,0c-42.667,0-75.093-39.253-67.413-81.067l26.453-136.533
			c10.24-52.053,56.32-89.6,109.227-89.6h10.24c10.24,0,19.627,2.56,28.16,8.533s17.92,8.533,28.16,8.533h88.747
			c10.24,0,19.627-2.56,28.16-8.533l0,0c8.533-5.973,17.92-8.533,28.16-8.533h10.24c52.907,0,98.987,37.547,109.227,89.6
			l26.453,136.533C508.936,441.523,476.509,480.776,433.843,480.776"/>
	</g>
	<path style="fill:#FFA800;" d="M501.256,399.709l-26.453-136.533c-10.24-52.053-56.32-89.6-109.227-89.6h-10.24
		c-1.707,0-4.267,0-5.973,0.853c48.64,4.267,89.6,40.107,98.987,89.6l26.453,136.533c6.827,36.693-17.067,71.68-52.053,79.36
		c3.413,0.853,6.827,1.707,10.24,1.707l0,0C476.509,480.776,508.936,441.523,501.256,399.709"/>
	<path style="fill:#FFFFFF;" d="M9.736,399.709l26.453-136.533c10.24-52.053,55.467-89.6,108.373-89.6h10.24
		c1.707,0,4.267,0,5.973,0.853c-48.64,4.267-89.6,40.107-98.987,89.6L35.336,400.563c-6.827,36.693,17.067,71.68,52.053,79.36
		c-3.413,0-6.827,0.853-11.093,0.853l0,0C33.629,480.776,1.203,441.523,9.736,399.709"/>
	<polygon style="fill:#63D3FD;" points="425.309,258.909 391.176,258.909 391.176,224.776 357.043,224.776 357.043,258.909 
		322.909,258.909 322.909,293.043 357.043,293.043 357.043,327.176 391.176,327.176 391.176,293.043 425.309,293.043 	"/>
	<path style="fill:#00DA6C;" d="M288.776,335.709c0,18.773-15.36,34.133-34.133,34.133s-34.133-15.36-34.133-34.133
		s15.36-34.133,34.133-34.133S288.776,316.936,288.776,335.709"/>
	<g>
		<path style="fill:#E4667F;" d="M88.243,247.816c11.947,0,21.333,9.387,21.333,21.333s-9.387,21.333-21.333,21.333
			s-21.333-9.387-21.333-21.333C66.909,258.056,76.296,247.816,88.243,247.816"/>
		<path style="fill:#E4667F;" d="M199.176,247.816c11.947,0,21.333,9.387,21.333,21.333s-9.387,21.333-21.333,21.333
			c-11.947,0-21.333-9.387-21.333-21.333C177.843,258.056,187.229,247.816,199.176,247.816"/>
		<path style="fill:#E4667F;" d="M165.043,229.043c0,11.947-9.387,21.333-21.333,21.333c-11.947,0-21.333-9.387-21.333-21.333
			c0-11.947,9.387-21.333,21.333-21.333C155.656,207.709,165.043,217.096,165.043,229.043"/>
		<path style="fill:#E4667F;" d="M165.043,314.376c0,11.947-9.387,21.333-21.333,21.333c-11.947,0-21.333-9.387-21.333-21.333
			s9.387-21.333,21.333-21.333C155.656,293.043,165.043,302.429,165.043,314.376"/>
	</g>
	<path d="M433.843,489.309c-15.36,0-29.013-7.68-37.547-20.48l-20.48-29.867c-11.093-17.067-29.867-26.453-49.493-26.453h-143.36
		c-19.627,0-38.4,10.24-49.493,26.453l-20.48,29.867c-8.533,12.8-22.187,20.48-37.547,20.48c-23.04,0-44.373-10.24-58.88-28.16
		s-20.48-40.96-16.213-63.147l26.453-136.533c10.24-55.467,59.733-96.427,116.907-96.427h10.24c11.947,0,23.04,3.413,33.28,10.24
		c6.827,4.267,15.36,6.827,23.04,6.827h88.747c8.533,0,16.213-2.56,23.04-6.827c9.387-6.827,21.333-10.24,33.28-10.24h10.24
		c57.173,0,106.667,40.96,116.907,96.427l26.453,136.533c4.267,22.187-1.707,46.08-16.213,63.147
		C478.216,479.069,456.883,489.309,433.843,489.309z M182.963,395.443h143.36c25.6,0,49.493,12.8,64,34.133l20.48,29.867
		c5.12,7.68,13.653,12.8,23.04,12.8c17.92,0,34.987-7.68,46.08-21.333c11.093-13.653,16.213-31.573,12.8-49.493l-26.453-136.533
		c-9.387-47.787-51.2-82.773-100.693-82.773h-10.24c-8.533,0-16.213,2.56-23.04,6.827c-9.387,6.827-21.333,10.24-33.28,10.24
		h-88.747c-11.947,0-23.04-3.413-33.28-10.24c-6.827-4.267-15.36-6.827-23.04-6.827h-10.24c-48.64,0-91.307,34.987-100.693,82.773
		L16.563,401.416c-3.413,17.92,0.853,35.84,12.8,49.493s28.16,21.333,46.08,21.333c9.387,0,17.92-4.267,23.04-12.8l20.48-29.867
		C133.469,408.243,157.363,395.443,182.963,395.443z"/>
	<path d="M254.643,199.176c-5.12,0-8.533-3.413-8.533-8.533v-102.4c0-23.893,18.773-42.667,42.667-42.667
		c23.893,0,42.667,18.773,42.667,42.667v25.6c0,9.387,7.68,17.067,17.067,17.067c9.387,0,17.067-7.68,17.067-17.067V79.709
		c0-5.12,3.413-8.533,8.533-8.533c5.12,0,8.533,3.413,8.533,8.533v34.133c0,18.773-15.36,34.133-34.133,34.133
		c-18.773,0-34.133-15.36-34.133-34.133v-25.6c0-14.507-11.093-25.6-25.6-25.6c-14.507,0-25.6,11.093-25.6,25.6v102.4
		C263.176,195.763,259.763,199.176,254.643,199.176z"/>
	<path d="M391.176,88.243h-34.133c-5.12,0-8.533-3.413-8.533-8.533v-51.2c0-5.12,3.413-8.533,8.533-8.533h34.133
		c5.12,0,8.533,3.413,8.533,8.533v51.2C399.709,84.829,396.296,88.243,391.176,88.243z M365.576,71.176h17.067V37.043h-17.067
		V71.176z"/>
	<path d="M391.176,335.709h-34.133c-5.12,0-8.533-3.413-8.533-8.533v-25.6h-25.6c-5.12,0-8.533-3.413-8.533-8.533v-34.133
		c0-5.12,3.413-8.533,8.533-8.533h25.6v-25.6c0-5.12,3.413-8.533,8.533-8.533h34.133c5.12,0,8.533,3.413,8.533,8.533v25.6h25.6
		c5.12,0,8.533,3.413,8.533,8.533v34.133c0,5.12-3.413,8.533-8.533,8.533h-25.6v25.6
		C399.709,332.296,396.296,335.709,391.176,335.709z M365.576,318.643h17.067v-25.6c0-5.12,3.413-8.533,8.533-8.533h25.6v-17.067
		h-25.6c-5.12,0-8.533-3.413-8.533-8.533v-25.6h-17.067v25.6c0,5.12-3.413,8.533-8.533,8.533h-25.6v17.067h25.6
		c5.12,0,8.533,3.413,8.533,8.533V318.643z"/>
	<path d="M143.709,258.909c-16.213,0-29.867-13.653-29.867-29.867s13.653-29.867,29.867-29.867
		c16.213,0,29.867,13.653,29.867,29.867S159.923,258.909,143.709,258.909z M143.709,216.243c-6.827,0-12.8,5.973-12.8,12.8
		s5.973,12.8,12.8,12.8c6.827,0,12.8-5.973,12.8-12.8S150.536,216.243,143.709,216.243z"/>
	<path d="M143.709,344.243c-16.213,0-29.867-13.653-29.867-29.867s13.653-29.867,29.867-29.867
		c16.213,0,29.867,13.653,29.867,29.867C173.576,330.589,159.923,344.243,143.709,344.243z M143.709,301.576
		c-6.827,0-12.8,5.973-12.8,12.8s5.973,12.8,12.8,12.8c6.827,0,12.8-5.973,12.8-12.8S150.536,301.576,143.709,301.576z"/>
	<path d="M88.243,299.869c-16.213,0-29.867-13.653-29.867-29.867c0-16.213,13.653-29.867,29.867-29.867s29.867,13.653,29.867,29.867
		S104.456,299.869,88.243,299.869z M88.243,256.349c-6.827,0-12.8,5.973-12.8,12.8s5.973,12.8,12.8,12.8s12.8-5.973,12.8-12.8
		S95.069,256.349,88.243,256.349z"/>
	<path d="M199.176,299.869c-16.213,0-29.867-13.653-29.867-29.867c0-16.213,13.653-29.867,29.867-29.867
		s29.867,13.653,29.867,29.867S215.389,299.869,199.176,299.869z M199.176,256.349c-6.827,0-12.8,5.973-12.8,12.8
		s5.973,12.8,12.8,12.8s12.8-5.973,12.8-12.8S206.003,256.349,199.176,256.349z"/>
	<path d="M254.643,378.376c-23.893,0-42.667-18.773-42.667-42.667s18.773-42.667,42.667-42.667s42.667,18.773,42.667,42.667
		S278.536,378.376,254.643,378.376z M254.643,310.109c-14.507,0-25.6,11.093-25.6,25.6s11.093,25.6,25.6,25.6
		c14.507,0,25.6-11.093,25.6-25.6S269.149,310.109,254.643,310.109z"/>
	<path d="M203.443,198.323h-0.853c-8.533-0.853-17.92-4.267-24.747-9.387c-6.827-4.267-15.36-6.827-23.04-6.827h-11.093
		c-13.653,0-26.453,2.56-39.253,7.68c-2.56,0.853-5.973,0.853-7.68-0.853c-2.56-0.853-4.267-3.413-4.267-6.827v-23.04
		c0-15.36,12.8-28.16,28.16-28.16h62.293c15.36,0,28.16,12.8,28.16,28.16v30.72c0,2.56-0.853,5.12-2.56,6.827
		C207.709,198.323,205.149,198.323,203.443,198.323z M143.709,165.043h10.24c11.947,0,23.04,3.413,33.28,10.24
		c2.56,1.707,5.12,3.413,7.68,4.267v-19.627c0-5.973-5.12-11.093-11.093-11.093h-62.293c-5.973,0-11.093,5.12-11.093,11.093v11.093
		C120.669,166.749,132.616,165.043,143.709,165.043z"/>
</g>
<g>
</g>
<g>
</g>
<g>
</g>
<g>
</g>
<g>
</g>
<g>
</g>
<g>
</g>
<g>
</g>
<g>
</g>
<g>
</g>
<g>
</g>
<g>
</g>
<g>
</g>
<g>
</g>
<g>
</g>
</svg>
