<?xml version="1.0" encoding="iso-8859-1"?>
<!-- Generator: Adobe Illustrator 19.0.0, SVG Export Plug-In . SVG Version: 6.00 Build 0)  -->
<svg version="1.1" id="Capa_1" xmlns="http://www.w3.org/2000/svg" xmlns:xlink="http://www.w3.org/1999/xlink" x="0px" y="0px"
	 viewBox="0 0 511.998 511.998" style="enable-background:new 0 0 511.998 511.998;" xml:space="preserve">
<g>
	<path style="fill:#FFDFB8;" d="M392.734,235.48h-21.671v-62.848h21.671c11.167,0,20.22,9.053,20.22,20.22v22.407
		C412.954,226.427,403.901,235.48,392.734,235.48z"/>
	<path style="fill:#FFDFB8;" d="M119.265,235.48h21.671v-62.848h-21.671c-11.167,0-20.22,9.053-20.22,20.22v22.407
		C99.045,226.427,108.098,235.48,119.265,235.48z"/>
</g>
<path style="fill:#F4CFA6;" d="M316.605,354.084l-11.223-2.256c-7.964-1.601-13.693-8.596-13.693-16.719v-16.17h-73.41v16.579
	c0,8.123-5.729,15.118-13.693,16.719l-9.191,1.847v61.73h121.211v-61.73H316.605z"/>
<path style="fill:#FFDFB8;" d="M255.999,335.297L255.999,335.297c-70.527,0-127.7-57.173-127.7-127.7v-35.888
	c0-70.527,57.173-127.7,127.7-127.7l0,0c70.527,0,127.7,57.173,127.7,127.7v35.888C383.699,278.123,326.526,335.297,255.999,335.297
	z"/>
<path style="fill:#F4CFA6;" d="M255.999,44.009L255.999,44.009c-8.92,0-17.626,0.918-26.03,2.658
	c58.044,12.021,101.67,63.435,101.67,125.041v35.888c0,52.343-31.497,104.347-76.567,127.688c0.309,0.002,0.617,0.012,0.926,0.012
	l0,0c70.527,0,127.7-57.173,127.7-127.7v-35.888C383.699,101.182,326.526,44.009,255.999,44.009z"/>
<path style="fill:#FFB125;" d="M128.299,207.597c0,0.394,0.011,0.785,0.015,1.179c17.781-0.008,32.192-14.424,32.192-32.207v-45.058
	l-25.51-0.72c-4.342,12.846-6.697,26.607-6.697,40.918V207.597z"/>
<g>
	<path style="fill:#F4A21E;" d="M351.492,141.351v35.218c0,17.783,14.411,32.199,32.192,32.207c0.003-0.393,0.015-0.785,0.015-1.179
		v-35.888c0-10.749-1.335-21.185-3.836-31.158L351.492,141.351z"/>
	<path style="fill:#F4A21E;" d="M132.472,139.233c69.257-18.83,114.004,39.007,173.557,39.007c49.971,0,68.877-21.931,75.051-32.382
		C369.128,87.725,317.67,44.009,255.999,44.009l0,0C196.695,44.009,146.839,84.436,132.472,139.233z"/>
</g>
<path style="fill:#333333;" d="M407.845,122.072c-3.383-15.906-36.551-16.317-48.057-17.212
	c-34.475-2.681-69.235-1.939-103.763-1.939l0,0c-0.008,0-0.017,0-0.025,0s-0.017,0-0.025,0l0,0
	c-34.528,0-69.288-0.742-103.763,1.939c-11.507,0.895-44.675,1.307-48.057,17.212c-3.64,17.117,48.011,67.581,151.82,67.581
	c0.008,0,0.017,0,0.025,0s0.017,0,0.025,0C359.833,189.653,411.485,139.188,407.845,122.072z"/>
<path style="fill:#E5E1DD;" d="M316.594,354.084l-60.595,39.271l-60.595-39.271l-71.612,21.085
	c-34.117,10.045-57.541,41.361-57.541,76.926v52.402h379.496v-52.402c0-35.565-23.425-66.881-57.541-76.926L316.594,354.084z"/>
<path style="fill:#FFFFFF;" d="M255.999,393.355l-60.595-39.271l-71.612,21.085c-34.117,10.045-57.541,41.361-57.541,76.926v52.402
	h189.748V393.355z"/>
<g>
	<path style="fill:#4D4D4D;" d="M66.251,452.096v52.402h164.835l-35.681-150.413l-71.612,21.085
		C89.676,385.215,66.251,416.531,66.251,452.096z"/>
	<path style="fill:#4D4D4D;" d="M445.747,452.096v52.402H280.913l35.681-150.413l71.612,21.085
		C422.323,385.215,445.747,416.531,445.747,452.096z"/>
</g>
<path style="fill:#3F3F3F;" d="M388.206,375.17l-71.612-21.085l-3.44,14.5l22.367,6.586c34.117,10.045,57.541,41.361,57.541,76.926
	v52.402h52.685v-52.402C445.747,416.531,422.323,385.215,388.206,375.17z"/>
<g>
	<path style="fill:#353535;" d="M195.404,354.084l-28.049,49.526c-2.361,4.17-2.083,9.332,0.714,13.223l63.016,87.664
		L195.404,354.084z"/>
	<path style="fill:#353535;" d="M316.594,354.084l28.049,49.526c2.361,4.17,2.082,9.332-0.714,13.223l-63.016,87.664
		L316.594,354.084z"/>
</g>
<path style="fill:#EA2829;" d="M279.309,365.093l-19.378,8.065c-2.517,1.048-5.348,1.048-7.865,0l-19.378-8.065
	c-10.586-4.406-22.249,3.372-22.249,14.839v19.792c0,11.466,11.663,19.245,22.249,14.839l19.378-8.065
	c2.517-1.048,5.348-1.048,7.865,0l19.378,8.065c10.586,4.406,22.249-3.372,22.249-14.839v-19.792
	C301.558,368.466,289.895,360.687,279.309,365.093z"/>
<g>
	<circle style="fill:#4D4D4D;" cx="255.999" cy="436.09" r="9.05"/>
	<circle style="fill:#4D4D4D;" cx="255.999" cy="482.45" r="9.05"/>
</g>
<path style="fill:#FF8D9B;" d="M263.493,300.932h-13.804c-19.035,0-34.466-15.431-34.466-34.466l0,0h82.736l0,0
	C297.959,285.501,282.528,300.932,263.493,300.932z"/>
<path style="fill:#4D4D4D;" d="M131.295,20.849c13.02,61.907,18.553,104.364,18.553,104.364h0.007
	c0.29,14.61,50.461,26.43,106.144,26.43c55.684,0,105.854-11.82,106.144-26.43h0.007c0,0,5.533-42.458,18.553-104.364
	C380.703,20.849,131.295,20.849,131.295,20.849z"/>
<path style="fill:#474747;" d="M321.751,20.849c-13.02,61.907-18.553,104.364-18.553,104.364h-0.007
	c-0.241,12.158-31.568,22.383-74.167,25.473c8.588,0.623,17.633,0.957,26.975,0.957c55.684,0,105.854-11.82,106.144-26.43h0.007
	c0,0,5.533-42.458,18.553-104.364C380.703,20.849,321.751,20.849,321.751,20.849z"/>
<path style="fill:#EF4A50;" d="M255.999,118.488c-48.217,0-94.309-8.009-110.056-19.239c2.671,16.5,3.905,25.964,3.905,25.964h0.007
	c0.29,14.61,50.461,26.43,106.144,26.43c55.684,0,105.854-11.82,106.144-26.43h0.007c0,0,1.234-9.464,3.905-25.964
	C350.308,110.479,304.216,118.488,255.999,118.488z"/>
<path style="fill:#DD3753;" d="M362.206,124.792c0.001-0.011,0.003-0.018,0.004-0.029c0.017-0.124,0.037-0.276,0.061-0.452
	c0.006-0.042,0.011-0.079,0.017-0.124c0.058-0.426,0.135-0.986,0.23-1.671c0-0.001,0-0.003,0.001-0.004
	c0.346-2.481,0.939-6.626,1.798-12.236c0.001-0.006,0.002-0.011,0.003-0.017c0.244-1.593,0.51-3.305,0.797-5.129
	c0.003-0.02,0.007-0.041,0.01-0.061c0.288-1.829,0.597-3.769,0.929-5.82c-10.062,7.176-35.485,13.032-61.49,16.328
	c-0.926,6.25-1.367,9.636-1.367,9.636h-0.007c-0.241,12.158-31.568,22.383-74.167,25.473c4.25,0.308,8.613,0.545,13.066,0.706
	c0.085,0.003,0.17,0.006,0.255,0.009c2.162,0.077,4.346,0.135,6.549,0.176c0.121,0.002,0.243,0.004,0.365,0.006
	c2.228,0.039,4.474,0.06,6.74,0.06c55.684,0,105.854-11.82,106.144-26.43h0.007c0,0,0.005-0.039,0.013-0.101
	C362.173,125.043,362.187,124.935,362.206,124.792z"/>
<path style="fill:#333333;" d="M380.703,20.849c0,7.371-58.594,13.346-124.704,13.346S131.295,28.22,131.295,20.849
	S189.89,7.503,255.999,7.503S380.703,13.478,380.703,20.849z"/>
<circle cx="255.999" cy="436.09" r="9.05"/>
<circle cx="255.999" cy="482.45" r="9.05"/>
<path d="M216.295,219.019V205.86c0-4.144-3.359-7.503-7.503-7.503s-7.503,3.359-7.503,7.503v13.159c0,4.144,3.359,7.503,7.503,7.503
	S216.295,223.163,216.295,219.019z"/>
<path d="M304.389,226.522c4.144,0,7.503-3.359,7.503-7.503V205.86c0-4.144-3.359-7.503-7.503-7.503s-7.503,3.359-7.503,7.503v13.159
	C296.886,223.163,300.245,226.522,304.389,226.522z"/>
<path d="M263.492,308.435c23.142,0,41.969-18.827,41.969-41.969c0-4.144-3.359-7.503-7.503-7.503h-82.736
	c-4.144,0-7.503,3.359-7.503,7.503c0,23.142,18.827,41.969,41.969,41.969H263.492z M223.787,273.969h65.606
	c-3.258,11.229-13.636,19.46-25.901,19.46h-13.803C237.424,293.429,227.045,285.198,223.787,273.969z"/>
<path d="M435.778,399.569c-11.429-15.281-27.147-26.206-45.453-31.596l-71.525-21.06c-0.234-0.072-0.473-0.135-0.717-0.184
	l-11.222-2.256c-4.244-0.854-7.369-4.485-7.642-8.757c42.422-14.348,75.464-49.217,87.276-92.733h6.239
	c15.286,0,27.723-12.437,27.723-27.723v-22.407c0-15.286-12.437-27.723-27.723-27.723h-1.707c-0.097-2.009-0.224-4.016-0.409-6.015
	c6.612-5.056,11.977-10.216,16.019-15.208c7.007-8.654,9.962-16.744,8.547-23.396c-3.548-16.68-25.639-20.749-41.371-22.181
	c2.95-18.049,7.517-43.861,13.909-74.385c0.326-0.965,0.484-1.993,0.484-3.096c0-9.26-10.759-13.366-44.278-16.899
	C320.112,1.44,288.064,0,255.999,0c-32.064,0-64.113,1.44-87.93,3.95c-33.518,3.534-44.278,7.64-44.278,16.899
	c0,1.106,0.159,2.136,0.486,3.103c6.39,30.521,10.957,56.33,13.907,74.377c-15.732,1.432-37.823,5.501-41.371,22.181
	c-1.415,6.652,1.541,14.742,8.547,23.396c4.042,4.991,9.406,10.151,16.019,15.208c-0.185,1.999-0.312,4.006-0.409,6.015h-1.707
	c-15.286,0-27.723,12.437-27.723,27.723v22.407c0,15.286,12.437,27.723,27.723,27.723h6.239
	c11.625,42.827,43.816,77.27,85.271,92.028v0.507c0,4.532-3.225,8.469-7.669,9.363l-9.191,1.847
	c-0.243,0.049-0.48,0.112-0.712,0.182l-71.53,21.061c-33.066,9.735-57.447,38.076-62.115,72.202
	c-0.562,4.106,2.311,7.889,6.417,8.451c0.345,0.047,0.688,0.07,1.026,0.07c3.692,0,6.91-2.727,7.424-6.487
	c3.869-28.283,24.078-51.772,51.486-59.842l53.829-15.849l-18.913,33.395c-3.79,6.693-3.338,15.054,1.151,21.301l54.474,75.781
	H73.754v-20.936c0-4.144-3.359-7.503-7.503-7.503s-7.503,3.359-7.503,7.503v28.439c0,4.144,3.359,7.503,7.503,7.503h379.496
	c4.144,0,7.503-3.359,7.503-7.503v-52.401C453.25,433.013,447.208,414.849,435.778,399.569z M319.484,374.412l18.63,32.896
	c0.916,1.617,0.807,3.637-0.277,5.146l-40.862,56.845l1.576-6.645L319.484,374.412z M376.196,172.632v27.475
	c-9.696-3.099-16.807-12.037-17.183-22.655c6.213-2.743,11.927-5.669,17.146-8.708c0.024,0.99,0.037,1.978,0.037,2.965
	L376.196,172.632L376.196,172.632z M391.075,213.26c0.015-0.357,0.029-0.714,0.041-1.071c0.037-1.108,0.06-2.22,0.07-3.334
	c0-0.008,0.001-0.015,0.001-0.023l0.006-0.434c0.005-0.267,0.009-0.533,0.009-0.801v-27.461h1.531
	c7.013,0,12.717,5.704,12.717,12.717v22.407c0,7.013-5.704,12.717-12.717,12.717h-3.066c0.002-0.012,0.003-0.025,0.005-0.038
	c0.231-1.521,0.428-3.052,0.607-4.589c0.032-0.273,0.064-0.546,0.094-0.819C390.711,219.47,390.946,216.379,391.075,213.26z
	 M255.999,15.006c45.867,0,81.81,2.774,101.9,5.84c-0.308,0.047-0.601,0.095-0.917,0.141c-0.063,0.009-0.125,0.019-0.188,0.028
	c-1.771,0.262-3.66,0.522-5.659,0.777c-0.12,0.015-0.241,0.031-0.361,0.046c-0.946,0.12-1.914,0.239-2.908,0.357
	c-0.05,0.006-0.098,0.012-0.148,0.018c-1.048,0.124-2.124,0.246-3.225,0.367c-0.144,0.016-0.291,0.031-0.436,0.047
	c-0.95,0.104-1.922,0.206-2.911,0.307c-0.201,0.021-0.401,0.041-0.604,0.062c-1.124,0.114-2.269,0.226-3.44,0.337
	c-0.126,0.012-0.256,0.023-0.382,0.035c-1.025,0.096-2.072,0.191-3.133,0.284c-0.311,0.027-0.623,0.055-0.938,0.082
	c-1.148,0.099-2.31,0.197-3.498,0.293c-0.061,0.005-0.12,0.01-0.181,0.015c-1.221,0.098-2.471,0.193-3.733,0.288
	c-0.38,0.028-0.764,0.056-1.148,0.084c-0.994,0.072-2.002,0.143-3.021,0.213c-0.337,0.023-0.669,0.047-1.009,0.069
	c-1.267,0.085-2.555,0.168-3.859,0.249c-0.439,0.027-0.885,0.053-1.328,0.08c-0.964,0.058-1.939,0.115-2.922,0.171
	c-0.48,0.027-0.958,0.055-1.443,0.081c-1.328,0.073-2.67,0.144-4.032,0.212c-0.445,0.022-0.898,0.043-1.346,0.065
	c-1.015,0.049-2.038,0.097-3.072,0.143c-0.571,0.026-1.143,0.051-1.72,0.076c-1.159,0.05-2.329,0.098-3.509,0.144
	c-0.552,0.022-1.105,0.043-1.661,0.064c-1.214,0.045-2.44,0.089-3.677,0.13c-0.628,0.021-1.261,0.041-1.895,0.061
	c-1.029,0.032-2.067,0.063-3.111,0.093c-0.576,0.016-1.148,0.034-1.729,0.049c-1.474,0.039-2.964,0.075-4.466,0.109
	c-0.643,0.014-1.294,0.027-1.942,0.041c-1.042,0.021-2.091,0.041-3.147,0.06c-0.667,0.012-1.333,0.024-2.006,0.034
	c-1.545,0.024-3.101,0.045-4.672,0.063c-0.618,0.007-1.245,0.012-1.867,0.018c-1.115,0.011-2.236,0.02-3.364,0.027
	c-0.726,0.005-1.452,0.009-2.183,0.012c-1.292,0.006-2.593,0.009-3.901,0.011c-0.403,0-0.801,0.002-1.206,0.002
	s-0.803-0.002-1.206-0.002c-1.308-0.001-2.61-0.005-3.902-0.011c-0.731-0.003-1.458-0.008-2.183-0.012
	c-1.129-0.007-2.25-0.017-3.365-0.027c-0.622-0.006-1.248-0.011-1.866-0.018c-1.572-0.018-3.129-0.039-4.674-0.063
	c-0.671-0.011-1.336-0.022-2.002-0.034c-1.057-0.018-2.108-0.038-3.153-0.06c-0.647-0.013-1.295-0.026-1.937-0.04
	c-1.504-0.034-2.995-0.07-4.471-0.109c-0.578-0.015-1.146-0.033-1.719-0.049c-1.048-0.03-2.09-0.061-3.123-0.093
	c-0.631-0.02-1.261-0.04-1.886-0.061c-1.245-0.042-2.479-0.085-3.701-0.131c-0.543-0.02-1.083-0.041-1.622-0.062
	c-1.189-0.047-2.368-0.095-3.535-0.145c-0.572-0.024-1.14-0.05-1.706-0.075c-1.041-0.047-2.073-0.095-3.096-0.145
	c-0.441-0.021-0.887-0.042-1.325-0.064c-1.366-0.068-2.712-0.139-4.043-0.212c-0.479-0.026-0.951-0.053-1.426-0.08
	c-0.992-0.056-1.974-0.113-2.946-0.172c-0.437-0.026-0.876-0.052-1.309-0.079c-1.308-0.081-2.6-0.164-3.871-0.249
	c-0.332-0.022-0.656-0.045-0.985-0.068c-1.029-0.07-2.046-0.142-3.05-0.216c-0.377-0.027-0.755-0.055-1.128-0.083
	c-1.268-0.095-2.522-0.19-3.748-0.289c-0.049-0.004-0.095-0.008-0.144-0.012c-1.202-0.097-2.379-0.196-3.54-0.296
	c-0.307-0.027-0.611-0.053-0.915-0.08c-1.074-0.094-2.133-0.19-3.17-0.287c-0.116-0.011-0.235-0.021-0.351-0.032
	c-1.176-0.111-2.326-0.224-3.454-0.338c-0.197-0.02-0.391-0.04-0.586-0.06c-0.997-0.102-1.976-0.206-2.934-0.31
	c-0.138-0.015-0.28-0.03-0.417-0.045c-1.105-0.122-2.186-0.244-3.238-0.369c-0.042-0.005-0.082-0.01-0.124-0.015
	c-1.005-0.119-1.982-0.239-2.937-0.36c-0.114-0.015-0.229-0.029-0.343-0.043c-2.006-0.256-3.9-0.517-5.677-0.779
	c-0.056-0.008-0.112-0.017-0.168-0.025c-0.319-0.048-0.615-0.095-0.927-0.143C174.189,17.78,210.132,15.006,255.999,15.006z
	 M165.171,37.434c0.876,0.098,1.777,0.195,2.692,0.292c0.07,0.007,0.136,0.015,0.206,0.022c0.076,0.008,0.156,0.015,0.231,0.023
	c0.483,0.051,0.962,0.101,1.456,0.152c0.546,0.056,1.113,0.107,1.666,0.162c0.617,0.061,1.231,0.121,1.858,0.18
	c1.138,0.108,2.294,0.212,3.458,0.315c0.303,0.027,0.602,0.054,0.908,0.08c22.599,1.964,50.047,3.038,78.352,3.038
	c28.307,0,55.757-1.073,78.356-3.038c0.3-0.026,0.594-0.053,0.892-0.079c1.17-0.104,2.332-0.208,3.475-0.317
	c0.621-0.059,1.229-0.119,1.84-0.179c0.557-0.055,1.128-0.107,1.678-0.163c0.497-0.051,0.979-0.102,1.465-0.153
	c0.073-0.008,0.149-0.015,0.222-0.022c0.068-0.007,0.131-0.014,0.199-0.021c0.918-0.097,1.822-0.194,2.701-0.292
	c9.822-1.09,17.55-2.247,23.54-3.598c-4.938,24.483-8.617,45.358-11.166,60.871c-16.522,9.383-59.605,16.279-103.203,16.279
	c-12.955,0-25.904-0.581-38.486-1.728c-4.126-0.385-7.777,2.664-8.153,6.791s2.664,7.777,6.791,8.153
	c13.033,1.188,26.439,1.791,39.848,1.791c40.034,0,77.991-5.368,100.419-13.679c-0.967,6.434-1.505,10.409-1.661,11.581
	c-0.059,0.33-0.096,0.667-0.11,1.011c-0.183,0.428-0.743,1.104-1.821,1.955c-3.235,2.552-11.138,6.679-27.556,10.419
	c-15.789,3.595-34.99,5.878-55.171,6.608c-4.657,0.168-9.367,0.254-14.099,0.254c-25.237,0-49.838-2.438-69.271-6.862
	c-21.89-4.985-28.643-10.661-29.377-12.373c-0.014-0.342-0.051-0.679-0.109-1.007c-0.01-0.073-0.021-0.157-0.034-0.252
	c-0.011-0.084-0.024-0.179-0.038-0.281c-0.004-0.026-0.007-0.053-0.011-0.081c-0.014-0.103-0.028-0.208-0.044-0.328
	c-0.019-0.142-0.04-0.297-0.063-0.463c-0.01-0.071-0.021-0.151-0.031-0.226c-0.017-0.125-0.035-0.253-0.054-0.389
	c-0.013-0.097-0.027-0.194-0.041-0.296c-0.023-0.166-0.048-0.342-0.073-0.524c-0.011-0.081-0.022-0.156-0.034-0.24
	c-0.035-0.249-0.072-0.513-0.111-0.788c-0.015-0.104-0.03-0.212-0.045-0.32c-0.034-0.238-0.069-0.486-0.106-0.742
	c-0.011-0.08-0.023-0.158-0.034-0.24c-0.102-0.711-0.215-1.49-0.338-2.333c-0.009-0.063-0.018-0.126-0.028-0.189
	c-0.058-0.395-0.118-0.802-0.18-1.225c-0.006-0.043-0.012-0.084-0.019-0.128c-0.115-0.779-0.237-1.6-0.368-2.47
	c6.766,2.52,15.039,4.773,24.763,6.741c4.067,0.826,8.02-1.804,8.842-5.865c0.822-4.062-1.804-8.021-5.866-8.842
	c-17.003-3.442-25.971-7.158-30.535-9.715c-2.549-15.512-6.227-36.387-11.165-60.868C147.621,35.187,155.349,36.344,165.171,37.434z
	 M119.265,227.977c-7.012,0-12.717-5.704-12.717-12.717v-22.407c0-7.013,5.705-12.717,12.717-12.717h1.531v27.461
	c0,0.082,0.003,0.162,0.003,0.244c0.002,0.193,0.003,0.385,0.006,0.578l0.006,0.423c0,0.001,0,0.003,0,0.004
	c0.01,1.119,0.033,2.234,0.071,3.346c0.012,0.356,0.026,0.711,0.041,1.067c0.129,3.122,0.364,6.217,0.703,9.282
	c0.029,0.266,0.061,0.532,0.091,0.798c0.181,1.554,0.38,3.102,0.614,4.639h-3.066V227.977z M117.025,134.464
	c-5.066-6.256-5.707-10.009-5.532-10.831c0.778-3.656,6.615-8.266,29.045-10.399c1.095,7.219,1.698,11.654,1.838,12.707
	c0.024,0.407,0.069,0.809,0.126,1.209c0.002,0.015,0.005,0.029,0.007,0.043c0.923,6.366,6.046,11.807,15.508,16.42
	c12.1,6.005,29.796,9.905,47.964,12.295c0.44,0.059,0.888,0.113,1.33,0.171c0.355,0.045,0.71,0.091,1.065,0.135
	c11.802,1.499,24.489,2.463,37.35,2.798c1.998,0.052,4,0.085,6.004,0.106c1.462,0.018,2.89,0.028,4.269,0.028
	c3.427,0,6.855-0.045,10.273-0.134c23.923-0.624,47.286-3.395,65.355-7.817c2.336-0.572,4.563-1.162,6.68-1.773
	c20.469-5.898,30.74-13.61,31.315-23.48c0.14-1.052,0.743-5.487,1.839-12.708c22.43,2.133,28.267,6.744,29.045,10.399
	c0.175,0.822-0.467,4.574-5.533,10.831c-13.416,16.569-54.021,43.865-124.089,47.319c-0.274,0.013-0.546,0.027-0.821,0.04
	c-1.916,0.089-3.861,0.155-5.821,0.208c-0.432,0.011-0.856,0.028-1.29,0.038c-2.297,0.052-4.62,0.082-6.977,0.082
	c-2.33,0-4.625-0.031-6.897-0.081c-0.526-0.012-1.041-0.031-1.564-0.046c-1.84-0.051-3.667-0.112-5.468-0.195
	c-0.386-0.017-0.768-0.037-1.151-0.056C170.978,178.28,130.429,151.018,117.025,134.464z M135.803,171.709
	c0-0.986,0.013-1.976,0.038-2.965c5.218,3.039,10.932,5.964,17.145,8.707c-0.375,10.619-7.486,19.558-17.182,22.657L135.803,171.709
	L135.803,171.709z M138.421,232.582c-0.09-0.426-0.181-0.852-0.266-1.279c-0.106-0.526-0.206-1.055-0.304-1.584
	c-0.103-0.556-0.204-1.112-0.3-1.669c-0.076-0.44-0.149-0.88-0.22-1.321c-0.104-0.652-0.203-1.306-0.297-1.96
	c-0.054-0.375-0.107-0.749-0.158-1.125c-0.096-0.722-0.185-1.444-0.268-2.168c-0.038-0.328-0.077-0.654-0.113-0.983
	c-0.082-0.766-0.154-1.534-0.221-2.302c-0.026-0.3-0.056-0.599-0.08-0.9c-0.048-0.594-0.083-1.188-0.122-1.783
	c16.061-3.202,28.654-16.123,31.379-32.347c2.334,0.82,4.729,1.611,7.174,2.375c1.164,0.366,2.346,0.727,3.545,1.083
	c0.464,0.137,0.933,0.27,1.401,0.405c1.415,0.41,2.856,0.81,4.32,1.203c0.182,0.049,0.363,0.098,0.545,0.146
	c15.974,4.245,34.83,7.432,56.765,8.439c0.268,0.012,0.539,0.022,0.807,0.034c1.89,0.082,3.803,0.147,5.738,0.195
	c0.511,0.013,1.02,0.028,1.533,0.038c2.213,0.045,4.446,0.076,6.719,0.076h0.025c2.265,0,4.491-0.031,6.697-0.076
	c0.548-0.011,1.092-0.027,1.637-0.041c1.873-0.048,3.724-0.111,5.554-0.189c0.327-0.014,0.656-0.026,0.982-0.041
	c21.825-1.007,40.601-4.175,56.52-8.395c0.318-0.084,0.633-0.17,0.949-0.255c1.269-0.342,2.52-0.69,3.753-1.045
	c1.493-0.427,2.961-0.869,4.416-1.317c0.233-0.072,0.474-0.143,0.706-0.216c2.491-0.777,4.932-1.581,7.309-2.417
	c2.726,16.223,15.319,29.143,31.379,32.345c-0.039,0.594-0.074,1.189-0.122,1.782c-0.024,0.302-0.054,0.602-0.08,0.903
	c-0.067,0.766-0.139,1.532-0.221,2.297c-0.036,0.332-0.076,0.663-0.114,0.994c-0.083,0.717-0.17,1.434-0.266,2.149
	c-0.052,0.386-0.107,0.77-0.162,1.155c-0.092,0.639-0.188,1.277-0.29,1.915c-0.074,0.461-0.15,0.922-0.23,1.381
	c-0.091,0.529-0.187,1.057-0.285,1.584c-0.105,0.562-0.211,1.123-0.323,1.683c-0.076,0.379-0.157,0.757-0.236,1.135
	c-9.566,45.25-44.665,81.185-89.458,91.972c-0.593,0.142-1.186,0.283-1.781,0.416c-0.563,0.126-1.127,0.251-1.693,0.369
	c-0.96,0.2-1.922,0.39-2.887,0.567c-0.404,0.074-0.809,0.145-1.215,0.216c-1.004,0.173-2.01,0.335-3.019,0.483
	c-0.398,0.058-0.798,0.113-1.197,0.168c-0.987,0.134-1.976,0.257-2.967,0.367c-0.272,0.03-0.542,0.065-0.814,0.093
	c-1.251,0.13-2.504,0.24-3.76,0.332c-0.297,0.021-0.595,0.037-0.893,0.057c-1.005,0.066-2.011,0.119-3.018,0.159
	c-0.355,0.014-0.709,0.029-1.065,0.041c-1.275,0.04-2.552,0.067-3.83,0.067c-1.343,0-2.682-0.03-4.021-0.074
	c-0.359-0.012-0.717-0.026-1.074-0.041c-1.176-0.049-2.35-0.113-3.522-0.196c-0.178-0.013-0.358-0.021-0.536-0.034
	c-1.277-0.096-2.55-0.22-3.82-0.356c-0.429-0.046-0.857-0.096-1.285-0.147c-0.953-0.113-1.904-0.239-2.853-0.374
	c-0.388-0.056-0.778-0.104-1.164-0.163c-1.137-0.174-2.271-0.37-3.402-0.576c-0.604-0.11-1.205-0.228-1.805-0.347
	c-0.622-0.123-1.241-0.255-1.861-0.387c-1.257-0.271-2.507-0.56-3.749-0.87c-0.345-0.086-0.692-0.168-1.036-0.257
	c-0.843-0.218-1.683-0.447-2.519-0.683c-0.2-0.056-0.399-0.115-0.598-0.172C180.444,310.918,147.649,276.055,138.421,232.582z
	 M174.163,412.455c-1.085-1.509-1.194-3.53-0.278-5.147l18.631-32.897l22.51,94.888L174.163,412.455z M274.981,496.994h-37.964
	l-17.755-74.846c2.347,0.761,4.788,1.158,7.243,1.158c3.065,0,6.145-0.6,9.067-1.816l19.377-8.064
	c0.667-0.279,1.433-0.278,2.099-0.001l19.378,8.065c5.26,2.189,11.032,2.37,16.309,0.66L274.981,496.994z M294.055,399.724
	c0,2.914-1.39,5.513-3.815,7.13c-2.423,1.616-5.355,1.902-8.047,0.783l-19.378-8.066c-4.331-1.801-9.299-1.802-13.631,0.001
	l-19.377,8.065c-2.69,1.119-5.623,0.834-8.048-0.783c-2.424-1.617-3.815-4.216-3.815-7.13v-19.792c0-2.645,1.155-5.021,3.179-6.648
	c0.25-0.202,0.508-0.388,0.772-0.559c0.199-0.128,0.405-0.237,0.61-0.347c0.15-0.081,0.297-0.17,0.45-0.241
	c0.257-0.119,0.52-0.213,0.784-0.305c0.115-0.04,0.226-0.092,0.342-0.127c0.382-0.115,0.77-0.204,1.161-0.263
	c0.085-0.013,0.172-0.011,0.257-0.021c0.308-0.037,0.617-0.067,0.928-0.069c0.34-0.002,0.682,0.017,1.023,0.057
	c0.079,0.009,0.158,0.024,0.237,0.036c0.273,0.039,0.546,0.093,0.818,0.159c0.095,0.023,0.189,0.045,0.283,0.072
	c0.342,0.096,0.682,0.206,1.017,0.345l19.378,8.067c4.33,1.802,9.298,1.803,13.63-0.001l19.378-8.065
	c0.356-0.148,0.717-0.269,1.08-0.368c0.123-0.034,0.248-0.052,0.372-0.08c0.239-0.054,0.479-0.107,0.719-0.14
	c0.15-0.021,0.299-0.028,0.449-0.04c0.216-0.018,0.432-0.035,0.648-0.036c0.158-0.001,0.316,0.008,0.474,0.017
	c0.206,0.01,0.411,0.025,0.616,0.051c0.161,0.02,0.322,0.048,0.482,0.077c0.199,0.037,0.396,0.081,0.592,0.132
	c0.159,0.042,0.317,0.087,0.473,0.138c0.196,0.064,0.39,0.138,0.582,0.217c0.148,0.061,0.297,0.121,0.442,0.191
	c0.207,0.099,0.41,0.212,0.611,0.328c0.12,0.069,0.241,0.134,0.358,0.209c0.269,0.173,0.53,0.363,0.785,0.568
	c2.025,1.627,3.18,4.003,3.18,6.649v19.789H294.055z M294.601,358.191c-0.382-0.16-0.766-0.311-1.155-0.45
	c-0.161-0.058-0.325-0.108-0.487-0.162c-0.278-0.093-0.556-0.186-0.837-0.268c-0.173-0.051-0.347-0.095-0.52-0.141
	c-0.265-0.072-0.53-0.141-0.798-0.203c-0.173-0.04-0.347-0.076-0.521-0.113c-0.275-0.057-0.55-0.11-0.827-0.158
	c-0.165-0.028-0.33-0.056-0.496-0.08c-0.298-0.045-0.597-0.082-0.897-0.115c-0.145-0.016-0.289-0.034-0.434-0.047
	c-0.359-0.033-0.72-0.056-1.081-0.072c-0.085-0.004-0.171-0.011-0.256-0.014c-0.913-0.031-1.83-0.008-2.745,0.068
	c-0.108,0.009-0.216,0.022-0.324,0.033c-0.342,0.033-0.683,0.072-1.024,0.12c-0.142,0.02-0.283,0.043-0.424,0.066
	c-0.308,0.049-0.616,0.104-0.923,0.166c-0.153,0.031-0.305,0.063-0.458,0.096c-0.298,0.066-0.595,0.14-0.891,0.218
	c-0.153,0.04-0.307,0.079-0.459,0.123c-0.305,0.087-0.608,0.183-0.91,0.283c-0.138,0.046-0.277,0.087-0.415,0.135
	c-0.395,0.138-0.788,0.288-1.178,0.448c-0.038,0.015-0.076,0.027-0.113,0.043c-0.001,0-0.001,0.001-0.001,0.001l-19.378,8.065
	c-0.666,0.279-1.432,0.278-2.098,0.001l-19.378-8.067c-0.419-0.174-0.842-0.332-1.266-0.481c-0.127-0.044-0.254-0.084-0.381-0.126
	c-0.306-0.102-0.613-0.198-0.922-0.286c-0.14-0.04-0.279-0.079-0.419-0.116c-0.319-0.085-0.639-0.163-0.96-0.234
	c-0.116-0.026-0.231-0.054-0.347-0.078c-0.882-0.183-1.769-0.314-2.658-0.394c-0.104-0.009-0.208-0.015-0.313-0.023
	c-0.34-0.026-0.68-0.045-1.021-0.057c-0.131-0.004-0.261-0.007-0.392-0.01c-0.128-0.002-0.256-0.009-0.384-0.009
	c-0.169,0-0.338,0.01-0.508,0.014c-0.181,0.004-0.362,0.007-0.543,0.015c-0.281,0.012-0.561,0.033-0.841,0.056
	c-0.182,0.015-0.364,0.027-0.545,0.046c-0.278,0.029-0.555,0.068-0.832,0.107c-0.182,0.025-0.364,0.047-0.545,0.077
	c-0.278,0.046-0.555,0.103-0.831,0.159c-0.177,0.036-0.355,0.066-0.531,0.105c-0.304,0.069-0.604,0.15-0.905,0.231
	c-0.324,0.087-0.645,0.181-0.965,0.282c-0.247,0.078-0.495,0.152-0.74,0.238c-0.237,0.083-0.47,0.178-0.704,0.269
	c-0.193,0.075-0.388,0.146-0.579,0.226c-0.242,0.101-0.48,0.212-0.719,0.322c-0.14,0.064-0.282,0.122-0.421,0.189l-2.876-1.864
	c6.379-3.669,10.888-10.096,12.057-17.485c1.93,0.445,3.872,0.835,5.821,1.195c0.343,0.064,0.685,0.131,1.029,0.192
	c0.71,0.126,1.422,0.241,2.135,0.355c0.504,0.081,1.008,0.162,1.513,0.237c0.636,0.095,1.272,0.183,1.91,0.268
	c0.589,0.079,1.179,0.155,1.771,0.227c0.586,0.071,1.173,0.139,1.761,0.202c0.651,0.07,1.304,0.133,1.958,0.194
	c0.546,0.051,1.091,0.102,1.638,0.146c0.712,0.058,1.427,0.105,2.143,0.151c0.497,0.032,0.994,0.068,1.491,0.095
	c0.811,0.044,1.625,0.074,2.439,0.103c0.409,0.015,0.816,0.036,1.226,0.047c1.224,0.033,2.452,0.052,3.684,0.052
	c1.189,0,2.375-0.016,3.557-0.047c0.343-0.009,0.684-0.028,1.027-0.039c0.842-0.028,1.683-0.057,2.521-0.1
	c0.407-0.021,0.812-0.053,1.218-0.077c0.772-0.047,1.544-0.093,2.312-0.153c0.445-0.035,0.889-0.079,1.333-0.119
	c0.724-0.064,1.448-0.127,2.169-0.202c0.489-0.051,0.977-0.112,1.465-0.168c0.668-0.077,1.335-0.153,2-0.24
	c0.54-0.07,1.078-0.15,1.617-0.227c0.603-0.086,1.207-0.172,1.808-0.266c0.596-0.093,1.191-0.195,1.786-0.297
	c0.53-0.09,1.059-0.18,1.587-0.277c0.662-0.121,1.322-0.25,1.982-0.381c0.444-0.088,0.889-0.176,1.332-0.269
	c0.305-0.064,0.612-0.119,0.917-0.185c1.47,7.588,6.475,14.067,13.375,17.437l-2.307,1.495c-0.159-0.077-0.322-0.144-0.483-0.217
	C295.011,358.375,294.808,358.278,294.601,358.191z M438.244,496.994H295.547l54.474-75.781c4.489-6.246,4.941-14.606,1.151-21.301
	l-18.912-33.394l53.828,15.849c15.173,4.468,28.201,13.524,37.675,26.189c9.474,12.666,14.481,27.721,14.481,43.539V496.994z"/>
<g>
</g>
<g>
</g>
<g>
</g>
<g>
</g>
<g>
</g>
<g>
</g>
<g>
</g>
<g>
</g>
<g>
</g>
<g>
</g>
<g>
</g>
<g>
</g>
<g>
</g>
<g>
</g>
<g>
</g>
</svg>
