<?xml version="1.0" encoding="iso-8859-1"?>
<!-- Generator: Adobe Illustrator 19.0.0, SVG Export Plug-In . SVG Version: 6.00 Build 0)  -->
<svg version="1.1" id="Capa_1" xmlns="http://www.w3.org/2000/svg" xmlns:xlink="http://www.w3.org/1999/xlink" x="0px" y="0px"
	 viewBox="0 0 468.293 468.293" style="enable-background:new 0 0 468.293 468.293;" xml:space="preserve">
<g>
	<path style="fill:#F6C358;" d="M278.801,81.592l-8.575-6.017l32.769-46.674c1.325-1.893,0.645-3.684,0.292-4.364
		c-0.353-0.686-1.427-2.272-3.74-2.272h-25.033V11.788h25.033c5.505,0,10.498,3.034,13.036,7.92
		c2.538,4.881,2.149,10.713-1.013,15.215L278.801,81.592z"/>
	<path style="fill:#F6C358;" d="M189.473,81.592l-32.769-46.674c-3.162-4.497-3.551-10.329-1.013-15.21
		c2.538-4.886,7.531-7.92,13.036-7.92h25.033v10.478h-25.033c-2.313,0-3.387,1.586-3.74,2.272c-0.353,0.68-1.033,2.471,0.292,4.359
		l32.769,46.68L189.473,81.592z"/>
</g>
<path style="fill:#FCD462;" d="M186.762,0v84.478c0,11.155,3.826,21.408,10.234,29.533c11.214,14.219,18.253,31.267,18.253,49.376
	v2.294h38.637v-2.294c0-18.109,7.038-35.157,18.253-49.376c6.408-8.125,10.234-18.379,10.234-29.533V0H186.762z"/>
<g>
	<polygon style="fill:#DC8744;" points="290.266,183.164 178.868,183.164 199.619,165.557 269.514,165.557 	"/>
	<polygon style="fill:#DC8744;" points="234.567,11.629 243.546,39.265 272.604,39.265 249.096,56.345 258.075,83.981 
		234.567,66.901 211.058,83.981 220.038,56.345 196.529,39.265 225.587,39.265 	"/>
</g>
<rect x="171.948" y="182.178" style="fill:#64798A;" width="124.391" height="286.114"/>
<rect x="296.332" y="258.36" style="fill:#3A556A;" width="124.391" height="209.932"/>
<rect x="47.569" y="320.031" style="fill:#2F4859;" width="124.391" height="148.261"/>
<g>
	<path style="fill:#FCD462;" d="M209.091,318.735h44.623v110.22h-23.656v-89.25h-20.968V318.735z"/>
	<path style="fill:#FCD462;" d="M367.601,382.816c2.473-3.503,3.715-6.889,3.715-10.161s-1.076-6.006-3.223-8.202
		c-2.153-2.196-4.908-3.294-8.273-3.294c-6.169,0-12.006,4.392-17.523,13.175l-17.523-10.373
		c4.582-7.101,9.607-12.474,15.069-16.121c5.468-3.644,12.431-5.465,20.888-5.465c8.457,0,15.887,2.688,22.29,8.06
		c6.403,5.376,9.601,12.686,9.601,21.936c0,5.047-1.285,9.884-3.85,14.509c-2.577,4.625-7.319,10.539-14.233,17.732l-17.659,18.363
		h38.688v19.627h-69.109v-16.262l28.736-29.437C360.989,391.018,365.122,386.322,367.601,382.816z"/>
	<path style="fill:#FCD462;" d="M84.934,363.263v-18.646h60v15.14l-20.045,22.85c7.848,1.31,13.925,4.604,18.224,9.881
		c4.293,5.283,6.446,11.379,6.446,18.295c0,10.281-3.481,18.341-10.444,24.181s-15.863,8.762-26.706,8.762
		c-10.838,0-21.823-3.832-32.943-11.496l8.974-17.382c9.251,6.541,17.523,9.81,24.812,9.81c4.392,0,8.014-1.073,10.862-3.223
		c2.854-2.15,4.281-5.256,4.281-9.321c0-4.066-1.636-7.289-4.908-9.672c-3.272-2.383-7.805-3.577-13.599-3.577
		c-3.081,0-7.43,0.892-13.033,2.663v-16.121l18.784-22.146H84.934z"/>
</g>
<g>
</g>
<g>
</g>
<g>
</g>
<g>
</g>
<g>
</g>
<g>
</g>
<g>
</g>
<g>
</g>
<g>
</g>
<g>
</g>
<g>
</g>
<g>
</g>
<g>
</g>
<g>
</g>
<g>
</g>
</svg>
