<?xml version="1.0" encoding="iso-8859-1"?>
<!-- Generator: Adobe Illustrator 19.0.0, SVG Export Plug-In . SVG Version: 6.00 Build 0)  -->
<svg version="1.1" id="Capa_1" xmlns="http://www.w3.org/2000/svg" xmlns:xlink="http://www.w3.org/1999/xlink" x="0px" y="0px"
	 viewBox="0 0 512 512" style="enable-background:new 0 0 512 512;" xml:space="preserve">
<g>
	<path id="SVGCleanerId_0" style="fill:#336A93;" d="M52.966,0h406.069C488.287,0,512,23.713,512,52.966v406.069
		C512,488.287,488.287,512,459.034,512H52.966C23.713,512,0,488.287,0,459.034V52.966C0,23.713,23.713,0,52.966,0z"/>
	<g>
		<g>
			<circle style="fill:#5496CE;" cx="66.207" cy="66.207" r="22.069"/>
			<circle style="fill:#5496CE;" cx="445.793" cy="66.207" r="22.069"/>
			<circle style="fill:#5496CE;" cx="66.207" cy="445.793" r="22.069"/>
			<circle style="fill:#5496CE;" cx="445.793" cy="445.793" r="22.069"/>
		</g>
		<polygon style="fill:#5496CE;" points="256,105.931 304.428,205.647 414.897,220.575 334.362,297.128 354.207,406.069 
			256,353.668 157.793,406.069 177.638,297.128 97.103,220.575 207.572,205.647 		"/>
	</g>
	<g>
		<path id="SVGCleanerId_0_1_" style="fill:#336A93;" d="M52.966,0h406.069C488.287,0,512,23.713,512,52.966v406.069
			C512,488.287,488.287,512,459.034,512H52.966C23.713,512,0,488.287,0,459.034V52.966C0,23.713,23.713,0,52.966,0z"/>
	</g>
	<g>
		<circle style="fill:#5496CE;" cx="66.207" cy="66.207" r="22.069"/>
		<circle style="fill:#5496CE;" cx="445.793" cy="66.207" r="22.069"/>
		<circle style="fill:#5496CE;" cx="66.207" cy="445.793" r="22.069"/>
		<circle style="fill:#5496CE;" cx="445.793" cy="445.793" r="22.069"/>
	</g>
	<polygon style="fill:#F4CD1E;" points="256,105.931 304.428,205.647 414.897,220.575 334.362,297.128 354.207,406.069 256,353.668 
		157.793,406.069 177.638,297.128 97.103,220.575 207.572,205.647 	"/>
</g>
<g>
</g>
<g>
</g>
<g>
</g>
<g>
</g>
<g>
</g>
<g>
</g>
<g>
</g>
<g>
</g>
<g>
</g>
<g>
</g>
<g>
</g>
<g>
</g>
<g>
</g>
<g>
</g>
<g>
</g>
</svg>
